<?xml version="1.0" encoding="UTF-8" standalone="no"?>
<!DOCTYPE svg PUBLIC "-//W3C//DTD SVG 1.1//EN"
 "http://www.w3.org/Graphics/SVG/1.1/DTD/svg11.dtd">
<!-- Generated by graphviz version 14.1.2 (20260124.0452)
 -->
<!-- Title: STM32F411xx Drivers Pages: 1 -->
<!--zoomable 696 -->

<svg id="main" version="1.1" xmlns="http://www.w3.org/2000/svg" xmlns:xlink="http://www.w3.org/1999/xlink" xml:space="preserve" onload="init(evt)">

<style type="text/css"><![CDATA[
.node, .edge {opacity: 0.7;}
.node.selected, .edge.selected {opacity: 1;}
.edge:hover path { stroke: red; }
.edge:hover polygon { stroke: red; fill: red; }
]]></style>

<defs>
  <circle id="rim" cx="0" cy="0" r="7"/>
  <circle id="rim2" cx="0" cy="0" r="3.5"/>
  <g id="zoomPlus">
    <use xlink:href="#rim" fill="#404040"><set attributeName="fill" to="#808080" begin="zoomplus.mouseover" end="zoomplus.mouseout"/></use>
    <path d="M-4,0h8M0,-4v8" fill="none" stroke="white" stroke-width="1.5" pointer-events="none"/>
  </g>
  <g id="zoomMin">
    <use xlink:href="#rim" fill="#404040"><set attributeName="fill" to="#808080" begin="zoomminus.mouseover" end="zoomminus.mouseout"/></use>
    <path d="M-4,0h8" fill="none" stroke="white" stroke-width="1.5" pointer-events="none"/>
  </g>
  <g id="arrowUp" transform="translate(30 24)">
    <use xlink:href="#rim"/>
    <path pointer-events="none" fill="none" stroke="white" stroke-width="1.5" d="M0,-3.0v7 M-2.5,-0.5L0,-3.0L2.5,-0.5"/>
  </g>
  <g id="arrowRight" transform="rotate(90) translate(36 -43)">
    <use xlink:href="#rim"/>
    <path pointer-events="none" fill="none" stroke="white" stroke-width="1.5" d="M0,-3.0v7 M-2.5,-0.5L0,-3.0L2.5,-0.5"/>
  </g>
  <g id="arrowDown" transform="rotate(180) translate(-30 -48)">
    <use xlink:href="#rim"/>
    <path pointer-events="none" fill="none" stroke="white" stroke-width="1.5" d="M0,-3.0v7 M-2.5,-0.5L0,-3.0L2.5,-0.5"/>
  </g>
  <g id="arrowLeft" transform="rotate(270) translate(-36 17)">
    <use xlink:href="#rim"/>
    <path pointer-events="none" fill="none" stroke="white" stroke-width="1.5" d="M0,-3.0v7 M-2.5,-0.5L0,-3.0L2.5,-0.5"/>
  </g>
  <g id="resetDef">
    <use xlink:href="#rim2" fill="#404040"><set attributeName="fill" to="#808080" begin="reset.mouseover" end="reset.mouseout"/></use>
  </g>
</defs>
<script type="application/ecmascript">
var viewWidth = 283;
var viewHeight = 696;
var sectionId = 'dynsection-0';
</script>
<script type="application/ecmascript" xlink:href="svg.min.js"/>
<svg id="graph" class="graph">
<g id="viewport">
<title>STM32F411xx Drivers</title>
<!-- Node5 -->
<g id="Node000005" class="node">
<title>Node5</title>
<g id="a_Node000005"><a xlink:href="group___a_h_b1___peripherals.html" target="_top" xlink:title="Base addresses for peripherals on AHB1 bus.">
<polygon fill="white" stroke="#666666" points="259.25,-688 165.25,-688 165.25,-668 259.25,-668 259.25,-688"/>
<text xml:space="preserve" text-anchor="middle" x="212.25" y="-674.5" font-family="Helvetica,sans-Serif" font-size="10.00">AHB1 Peripherals</text>
</a>
</g>
</g>
<!-- Node6 -->
<g id="Node000006" class="node">
<title>Node6</title>
<g id="a_Node000006"><a xlink:href="group___a_p_b1___peripherals.html" target="_top" xlink:title="Base addresses for peripherals on APB1 bus.">
<polygon fill="white" stroke="#666666" points="258.88,-650 165.62,-650 165.62,-630 258.88,-630 258.88,-650"/>
<text xml:space="preserve" text-anchor="middle" x="212.25" y="-636.5" font-family="Helvetica,sans-Serif" font-size="10.00">APB1 Peripherals</text>
</a>
</g>
</g>
<!-- Node7 -->
<g id="Node000007" class="node">
<title>Node7</title>
<g id="a_Node000007"><a xlink:href="group___a_p_b2___peripherals.html" target="_top" xlink:title="Base addresses for peripherals on APB2 bus.">
<polygon fill="white" stroke="#666666" points="258.88,-612 165.62,-612 165.62,-592 258.88,-592 258.88,-612"/>
<text xml:space="preserve" text-anchor="middle" x="212.25" y="-598.5" font-family="Helvetica,sans-Serif" font-size="10.00">APB2 Peripherals</text>
</a>
</g>
</g>
<!-- Node4 -->
<g id="Node000004" class="node">
<title>Node4</title>
<g id="a_Node000004"><a xlink:href="group___bus___base___addresses.html" target="_top" xlink:title="Base addresses for AHB and APB peripheral buses.">
<polygon fill="white" stroke="#666666" points="266,-574 158.5,-574 158.5,-554 266,-554 266,-574"/>
<text xml:space="preserve" text-anchor="middle" x="212.25" y="-560.5" font-family="Helvetica,sans-Serif" font-size="10.00">Bus Base Addresses</text>
</a>
</g>
</g>
<!-- Node11 -->
<g id="Node000011" class="node">
<title>Node11</title>
<g id="a_Node000011"><a xlink:href="group___clock___disable___macros.html" target="_top" xlink:title=" ">
<polygon fill="white" stroke="#666666" points="274.25,-536 150.25,-536 150.25,-504 274.25,-504 274.25,-536"/>
<text xml:space="preserve" text-anchor="start" x="158.25" y="-522.5" font-family="Helvetica,sans-Serif" font-size="10.00">Peripheral Clock Disable</text>
<text xml:space="preserve" text-anchor="middle" x="212.25" y="-510.5" font-family="Helvetica,sans-Serif" font-size="10.00"> Macros</text>
</a>
</g>
</g>
<!-- Node10 -->
<g id="Node000010" class="node">
<title>Node10</title>
<g id="a_Node000010"><a xlink:href="group___clock___enable___macros.html" target="_top" xlink:title=" ">
<polygon fill="white" stroke="#666666" points="272.75,-486 151.75,-486 151.75,-454 272.75,-454 272.75,-486"/>
<text xml:space="preserve" text-anchor="start" x="159.75" y="-472.5" font-family="Helvetica,sans-Serif" font-size="10.00">Peripheral Clock Enable</text>
<text xml:space="preserve" text-anchor="middle" x="212.25" y="-460.5" font-family="Helvetica,sans-Serif" font-size="10.00"> Macros</text>
</a>
</g>
</g>
<!-- Node2 -->
<g id="Node000002" class="node">
<title>Node2</title>
<g id="a_Node000002"><a xlink:href="group___cortex___m4___specifics.html" target="_top" xlink:title="NVIC ISER, ICER, and Priority Register definitions.">
<polygon fill="white" stroke="#666666" points="266.75,-436 157.75,-436 157.75,-404 266.75,-404 266.75,-436"/>
<text xml:space="preserve" text-anchor="start" x="165.75" y="-422.5" font-family="Helvetica,sans-Serif" font-size="10.00">Cortex&#45;M4 Processor</text>
<text xml:space="preserve" text-anchor="middle" x="212.25" y="-410.5" font-family="Helvetica,sans-Serif" font-size="10.00"> Specifics</text>
</a>
</g>
</g>
<!-- Node16 -->
<g id="Node000016" class="node">
<title>Node16</title>
<g id="a_Node000016"><a xlink:href="group___g_p_i_o___driver.html" target="_top" xlink:title="GPIO Peripheral Driver.">
<polygon fill="white" stroke="#666666" points="247.25,-386 177.25,-386 177.25,-366 247.25,-366 247.25,-386"/>
<text xml:space="preserve" text-anchor="middle" x="212.25" y="-372.5" font-family="Helvetica,sans-Serif" font-size="10.00">GPIO Driver</text>
</a>
</g>
</g>
<!-- Node14 -->
<g id="Node000014" class="node">
<title>Node14</title>
<g id="a_Node000014"><a xlink:href="group___generic___macros.html" target="_top" xlink:title=" ">
<polygon fill="white" stroke="#666666" points="270.5,-348 154,-348 154,-328 270.5,-328 270.5,-348"/>
<text xml:space="preserve" text-anchor="middle" x="212.25" y="-334.5" font-family="Helvetica,sans-Serif" font-size="10.00">Generic Helper Macros</text>
</a>
</g>
</g>
<!-- Node13 -->
<g id="Node000013" class="node">
<title>Node13</title>
<g id="a_Node000013"><a xlink:href="group___i_r_q___numbers.html" target="_top" xlink:title="IRQ definitions for STM32F411xx.">
<polygon fill="white" stroke="#666666" points="259.62,-310 164.88,-310 164.88,-278 259.62,-278 259.62,-310"/>
<text xml:space="preserve" text-anchor="start" x="172.88" y="-296.5" font-family="Helvetica,sans-Serif" font-size="10.00">Interrupt Request </text>
<text xml:space="preserve" text-anchor="middle" x="212.25" y="-284.5" font-family="Helvetica,sans-Serif" font-size="10.00">(IRQ) Numbers</text>
</a>
</g>
</g>
<!-- Node3 -->
<g id="Node000003" class="node">
<title>Node3</title>
<g id="a_Node000003"><a xlink:href="group___memory___base___addresses.html" target="_top" xlink:title="Base addresses for Flash, SRAM, and System Memory.">
<polygon fill="white" stroke="#666666" points="275,-260 149.5,-260 149.5,-240 275,-240 275,-260"/>
<text xml:space="preserve" text-anchor="middle" x="212.25" y="-246.5" font-family="Helvetica,sans-Serif" font-size="10.00">Memory Base Addresses</text>
</a>
</g>
</g>
<!-- Node9 -->
<g id="Node000009" class="node">
<title>Node9</title>
<g id="a_Node000009"><a xlink:href="group___peripheral___defs.html" target="_top" xlink:title="Peripheral base addresses typecasted to RegDef structures.">
<polygon fill="white" stroke="#666666" points="266.75,-222 157.75,-222 157.75,-202 266.75,-202 266.75,-222"/>
<text xml:space="preserve" text-anchor="middle" x="212.25" y="-208.5" font-family="Helvetica,sans-Serif" font-size="10.00">Peripheral Definitions</text>
</a>
</g>
</g>
<!-- Node8 -->
<g id="Node000008" class="node">
<title>Node8</title>
<g id="a_Node000008"><a xlink:href="group___peripheral___registers.html" target="_top" xlink:title="Structures defining the memory map of peripherals.">
<polygon fill="white" stroke="#666666" points="261.88,-184 162.62,-184 162.62,-152 261.88,-152 261.88,-184"/>
<text xml:space="preserve" text-anchor="start" x="170.62" y="-170.5" font-family="Helvetica,sans-Serif" font-size="10.00">Peripheral Register</text>
<text xml:space="preserve" text-anchor="middle" x="212.25" y="-158.5" font-family="Helvetica,sans-Serif" font-size="10.00"> Structures</text>
</a>
</g>
</g>
<!-- Node12 -->
<g id="Node000012" class="node">
<title>Node12</title>
<g id="a_Node000012"><a xlink:href="group___reset___macros.html" target="_top" xlink:title=" ">
<polygon fill="white" stroke="#666666" points="274.25,-134 150.25,-134 150.25,-114 274.25,-114 274.25,-134"/>
<text xml:space="preserve" text-anchor="middle" x="212.25" y="-120.5" font-family="Helvetica,sans-Serif" font-size="10.00">Peripheral Reset Macros</text>
</a>
</g>
</g>
<!-- Node15 -->
<g id="Node000015" class="node">
<title>Node15</title>
<g id="a_Node000015"><a xlink:href="group___s_p_i___bit___definitions.html" target="_top" xlink:title="Bit definitions for SPI peripherals.">
<polygon fill="white" stroke="#666666" points="260.75,-96 163.75,-96 163.75,-76 260.75,-76 260.75,-96"/>
<text xml:space="preserve" text-anchor="middle" x="212.25" y="-82.5" font-family="Helvetica,sans-Serif" font-size="10.00">SPI Bit Definitions</text>
</a>
</g>
</g>
<!-- Node17 -->
<g id="Node000017" class="node">
<title>Node17</title>
<g id="a_Node000017"><a xlink:href="group___s_p_i___driver.html" target="_top" xlink:title="SPI Peripheral Driver Configuration and APIs.">
<polygon fill="white" stroke="#666666" points="243.12,-58 181.38,-58 181.38,-38 243.12,-38 243.12,-58"/>
<text xml:space="preserve" text-anchor="middle" x="212.25" y="-44.5" font-family="Helvetica,sans-Serif" font-size="10.00">SPI Driver</text>
</a>
</g>
</g>
<!-- Node1 -->
<g id="Node000001" class="node">
<title>Node1</title>
<g id="a_Node000001"><a xlink:title="Main driver layer for peripherals.">
<polygon fill="#999999" stroke="#666666" points="113.5,-348 0,-348 0,-328 113.5,-328 113.5,-348"/>
<text xml:space="preserve" text-anchor="middle" x="56.75" y="-334.5" font-family="Helvetica,sans-Serif" font-size="10.00">STM32F411xx Drivers</text>
</a>
</g>
</g>
<!-- Node1&#45;&gt;Node5 -->
<g id="edge4" class="edge">
<title>Node1&#45;&gt;Node5</title>
<path fill="none" stroke="black" d="M57.32,-359.48C57.37,-416.54 65.58,-573.37 149.5,-659 153.82,-663.41 159.13,-666.8 164.81,-669.4"/>
<polygon fill="black" stroke="black" points="60.81,-359.86 57.4,-349.83 53.81,-359.8 60.81,-359.86"/>
</g>
<!-- Node1&#45;&gt;Node6 -->
<g id="edge5" class="edge">
<title>Node1&#45;&gt;Node6</title>
<path fill="none" stroke="black" d="M58.31,-359.72C60.85,-412.26 74.72,-547.33 149.5,-621 153.97,-625.41 159.45,-628.8 165.27,-631.4"/>
<polygon fill="black" stroke="black" points="61.81,-359.86 57.94,-350 54.82,-360.12 61.81,-359.86"/>
</g>
<!-- Node1&#45;&gt;Node7 -->
<g id="edge6" class="edge">
<title>Node1&#45;&gt;Node7</title>
<path fill="none" stroke="black" d="M59.57,-359.65C64.72,-407.09 83.63,-520.96 149.5,-583 153.99,-587.23 159.4,-590.52 165.13,-593.08"/>
<polygon fill="black" stroke="black" points="63.07,-359.48 58.62,-349.87 56.1,-360.16 63.07,-359.48"/>
</g>
<!-- Node1&#45;&gt;Node4 -->
<g id="edge3" class="edge">
<title>Node1&#45;&gt;Node4</title>
<path fill="none" stroke="black" d="M61.26,-359.68C69.2,-401.66 92.49,-494.39 149.5,-545 153.36,-548.43 157.82,-551.23 162.55,-553.54"/>
<polygon fill="black" stroke="black" points="64.71,-359.11 59.53,-349.87 57.82,-360.32 64.71,-359.11"/>
</g>
<!-- Node1&#45;&gt;Node11 -->
<g id="edge10" class="edge">
<title>Node1&#45;&gt;Node11</title>
<path fill="none" stroke="black" d="M64.94,-359.06C77.28,-392.26 105.49,-456.92 149.5,-495 153.26,-498.25 157.5,-501.12 161.95,-503.64"/>
<polygon fill="black" stroke="black" points="68.29,-358.02 61.63,-349.78 61.7,-360.37 68.29,-358.02"/>
</g>
<!-- Node1&#45;&gt;Node10 -->
<g id="edge9" class="edge">
<title>Node1&#45;&gt;Node10</title>
<path fill="none" stroke="black" d="M70.22,-357.59C86.09,-381.16 115.58,-420.61 149.5,-445 153.91,-448.17 158.79,-451.02 163.81,-453.56"/>
<polygon fill="black" stroke="black" points="73.34,-355.96 64.92,-349.53 67.49,-359.81 73.34,-355.96"/>
</g>
<!-- Node1&#45;&gt;Node2 -->
<g id="edge1" class="edge">
<title>Node1&#45;&gt;Node2</title>
<path fill="none" stroke="black" d="M82.03,-354.68C100.15,-366.73 125.77,-382.94 149.5,-395 155.38,-397.99 161.7,-400.88 167.97,-403.58"/>
<polygon fill="black" stroke="black" points="84.05,-351.82 73.8,-349.14 80.15,-357.63 84.05,-351.82"/>
</g>
<!-- Node1&#45;&gt;Node16 -->
<g id="edge15" class="edge">
<title>Node1&#45;&gt;Node16</title>
<path fill="none" stroke="black" d="M111.19,-351.23C132.95,-356.62 157.47,-362.69 176.79,-367.47"/>
<polygon fill="black" stroke="black" points="112.12,-347.85 101.57,-348.85 110.44,-354.65 112.12,-347.85"/>
</g>
<!-- Node1&#45;&gt;Node14 -->
<g id="edge13" class="edge">
<title>Node1&#45;&gt;Node14</title>
<path fill="none" stroke="black" d="M125.08,-338C134.6,-338 144.32,-338 153.64,-338"/>
<polygon fill="black" stroke="black" points="125.11,-334.5 115.11,-338 125.11,-341.5 125.11,-334.5"/>
</g>
<!-- Node1&#45;&gt;Node13 -->
<g id="edge12" class="edge">
<title>Node1&#45;&gt;Node13</title>
<path fill="none" stroke="black" d="M105.19,-324.4C124.11,-318.98 145.82,-312.76 164.65,-307.36"/>
<polygon fill="black" stroke="black" points="104.23,-321.04 95.58,-327.16 106.16,-327.76 104.23,-321.04"/>
</g>
<!-- Node1&#45;&gt;Node3 -->
<g id="edge2" class="edge">
<title>Node1&#45;&gt;Node3</title>
<path fill="none" stroke="black" d="M77.07,-320.29C94.77,-304.88 122.29,-282.88 149.5,-269 155.99,-265.69 163.17,-262.83 170.27,-260.42"/>
<polygon fill="black" stroke="black" points="75.04,-317.41 69.89,-326.67 79.69,-322.64 75.04,-317.41"/>
</g>
<!-- Node1&#45;&gt;Node9 -->
<g id="edge8" class="edge">
<title>Node1&#45;&gt;Node9</title>
<path fill="none" stroke="black" d="M69.64,-318.29C85.12,-294.26 114.38,-254.02 149.5,-231 154.66,-227.62 160.45,-224.81 166.37,-222.49"/>
<polygon fill="black" stroke="black" points="66.84,-316.16 64.5,-326.5 72.77,-319.88 66.84,-316.16"/>
</g>
<!-- Node1&#45;&gt;Node8 -->
<g id="edge7" class="edge">
<title>Node1&#45;&gt;Node8</title>
<path fill="none" stroke="black" d="M65.93,-317.25C79.14,-286.23 107.93,-227.71 149.5,-193 153.41,-189.74 157.79,-186.86 162.38,-184.33"/>
<polygon fill="black" stroke="black" points="62.78,-315.71 62.22,-326.29 69.26,-318.37 62.78,-315.71"/>
</g>
<!-- Node1&#45;&gt;Node12 -->
<g id="edge11" class="edge">
<title>Node1&#45;&gt;Node12</title>
<path fill="none" stroke="black" d="M61.83,-316.74C70.61,-276.78 95.07,-190.23 149.5,-143 153.48,-139.54 158.08,-136.72 162.94,-134.4"/>
<polygon fill="black" stroke="black" points="58.45,-315.78 59.86,-326.28 65.31,-317.2 58.45,-315.78"/>
</g>
<!-- Node1&#45;&gt;Node15 -->
<g id="edge14" class="edge">
<title>Node1&#45;&gt;Node15</title>
<path fill="none" stroke="black" d="M60.03,-316.5C66.01,-270.81 86.37,-163.47 149.5,-105 153.53,-101.27 158.28,-98.26 163.33,-95.85"/>
<polygon fill="black" stroke="black" points="56.56,-316.04 58.85,-326.39 63.51,-316.87 56.56,-316.04"/>
</g>
<!-- Node1&#45;&gt;Node17 -->
<g id="edge16" class="edge">
<title>Node1&#45;&gt;Node17</title>
<path fill="none" stroke="black" d="M58.68,-316.19C62.04,-265.14 77.59,-136.92 149.5,-67 157.94,-58.79 169.85,-54.12 180.96,-51.46"/>
<polygon fill="black" stroke="black" points="55.18,-315.99 58.13,-326.17 62.17,-316.37 55.18,-315.99"/>
</g>
<!-- Node18 -->
<g id="Node000018" class="node">
<title>Node18</title>
<g id="a_Node000018"><a xlink:href="group___u_s_a_r_t___driver.html" target="_top" xlink:title="USART Peripheral Driver.">
<polygon fill="white" stroke="#666666" points="251.75,-20 172.75,-20 172.75,0 251.75,0 251.75,-20"/>
<text xml:space="preserve" text-anchor="middle" x="212.25" y="-6.5" font-family="Helvetica,sans-Serif" font-size="10.00">USART Driver</text>
</a>
</g>
</g>
<!-- Node1&#45;&gt;Node18 -->
<g id="edge17" class="edge">
<title>Node1&#45;&gt;Node18</title>
<path fill="none" stroke="black" d="M57.6,-316.58C58.41,-261.02 68.41,-110.9 149.5,-29 155.73,-22.7 164,-18.48 172.45,-15.66"/>
<polygon fill="black" stroke="black" points="54.1,-316.24 57.56,-326.25 61.1,-316.27 54.1,-316.24"/>
</g>
</g>
</svg>

<g id="navigator" transform="translate(0 0)" fill="#404254">
  <rect fill="#f2f5e9" fill-opacity="0.5" stroke="#606060" stroke-width=".5" x="0" y="0" width="60" height="60"/>
  <use id="zoomplus" xlink:href="#zoomPlus" x="17" y="9" onmousedown="handleZoom(evt,'in')"/>
  <use id="zoomminus" xlink:href="#zoomMin" x="42" y="9" onmousedown="handleZoom(evt,'out')"/>
  <use id="reset" xlink:href="#resetDef" x="30" y="36" onmousedown="handleReset()"/>
   <use id="arrowup" xlink:href="#arrowUp" x="0" y="0" onmousedown="handlePan(0,-1)"/>
  <use id="arrowright" xlink:href="#arrowRight" x="0" y="0" onmousedown="handlePan(1,0)"/>
  <use id="arrowdown" xlink:href="#arrowDown" x="0" y="0" onmousedown="handlePan(0,1)"/>
  <use id="arrowleft" xlink:href="#arrowLeft" x="0" y="0" onmousedown="handlePan(-1,0)"/>
</g>
<svg viewBox="0 0 15 15" width="100%" height="30px" preserveAspectRatio="xMaxYMin meet">
 <g id="arrow_out" transform="scale(0.3 0.3)">
  <a xlink:href="group___s_t_m32_f411xx___drivers_org.svg" target="_base">
   <rect id="button" ry="5" rx="5" y="6" x="6" height="38" width="38"
        fill="#f2f5e9" fill-opacity="0.5" stroke="#606060" stroke-width="1.0"/>
   <path id="arrow"
     d="M 11.500037,31.436501 C 11.940474,20.09759 22.043105,11.32322 32.158766,21.979434 L 37.068811,17.246167 C 37.068811,17.246167 37.088388,32 37.088388,32 L 22.160133,31.978069 C 22.160133,31.978069 26.997745,27.140456 26.997745,27.140456 C 18.528582,18.264221 13.291696,25.230495 11.500037,31.436501 z"
     style="fill:#404040;"/>
  </a>
 </g>
</svg>

<style type='text/css'>
<![CDATA[
[data-mouse-over-selected='false'] { opacity: 0.7; }
[data-mouse-over-selected='true']  { opacity: 1.0; }
]]>
</style>
<script type="application/ecmascript"><![CDATA[
document.addEventListener('DOMContentLoaded', (event) => {
  highlightEdges();
  highlightAdjacentNodes();
});
]]></script>
</svg>
