<?xml version="1.0" encoding="UTF-8" standalone="no"?>
<!DOCTYPE svg PUBLIC "-//W3C//DTD SVG 1.1//EN"
 "http://www.w3.org/Graphics/SVG/1.1/DTD/svg11.dtd">
<!-- Generated by graphviz version 14.1.2 (20260124.0452)
 -->
<!-- Title: Drivers/Src/stm32f411xx_gpio_driver.c Pages: 1 -->
<svg width="426pt" height="208pt"
 viewBox="0.00 0.00 426.00 208.00" xmlns="http://www.w3.org/2000/svg" xmlns:xlink="http://www.w3.org/1999/xlink">
<g id="graph0" class="graph" transform="scale(1 1) rotate(0) translate(4 204)">
<title>Drivers/Src/stm32f411xx_gpio_driver.c</title>
<!-- Node1 -->
<g id="Node000001" class="node">
<title>Node1</title>
<g id="a_Node000001"><a xlink:title="Implementation of GPIO Peripheral Driver. Provides functions for GPIO initialization,...">
<polygon fill="#999999" stroke="#666666" points="261.62,-200 137.62,-200 137.62,-168 261.62,-168 261.62,-200"/>
<text xml:space="preserve" text-anchor="start" x="145.62" y="-186.5" font-family="Helvetica,sans-Serif" font-size="10.00">Drivers/Src/stm32f411xx</text>
<text xml:space="preserve" text-anchor="middle" x="199.62" y="-174.5" font-family="Helvetica,sans-Serif" font-size="10.00">_gpio_driver.c</text>
</a>
</g>
</g>
<!-- Node2 -->
<g id="Node000002" class="node">
<title>Node2</title>
<g id="a_Node000002"><a xlink:href="stm32f411xx__gpio__driver_8h.html" target="_top" xlink:title="Header file for GPIO Peripheral Driver. Defines configuration structures, macros for pin modes,...">
<polygon fill="white" stroke="#666666" points="265.75,-132 133.5,-132 133.5,-112 265.75,-112 265.75,-132"/>
<text xml:space="preserve" text-anchor="middle" x="199.62" y="-118.5" font-family="Helvetica,sans-Serif" font-size="10.00">stm32f411xx_gpio_driver.h</text>
</a>
</g>
</g>
<!-- Node1&#45;&gt;Node2 -->
<g id="edge1_Node000001_Node000002" class="edge">
<title>Node1&#45;&gt;Node2</title>
<g id="a_edge1_Node000001_Node000002"><a xlink:title=" ">
<path fill="none" stroke="#63b8ff" d="M199.62,-167.55C199.62,-160.34 199.62,-151.66 199.62,-143.88"/>
<polygon fill="#63b8ff" stroke="#63b8ff" points="203.13,-143.92 199.63,-133.92 196.13,-143.92 203.13,-143.92"/>
</a>
</g>
</g>
<!-- Node3 -->
<g id="Node000003" class="node">
<title>Node3</title>
<g id="a_Node000003"><a xlink:href="stm32f411xx_8h.html" target="_top" xlink:title="MCU specific header file for STM32F411xx. Contains peripheral base addresses, register definition str...">
<polygon fill="white" stroke="#666666" points="239.5,-76 159.75,-76 159.75,-56 239.5,-56 239.5,-76"/>
<text xml:space="preserve" text-anchor="middle" x="199.62" y="-62.5" font-family="Helvetica,sans-Serif" font-size="10.00">stm32f411xx.h</text>
</a>
</g>
</g>
<!-- Node2&#45;&gt;Node3 -->
<g id="edge2_Node000002_Node000003" class="edge">
<title>Node2&#45;&gt;Node3</title>
<g id="a_edge2_Node000002_Node000003"><a xlink:title=" ">
<path fill="none" stroke="#63b8ff" d="M194.36,-111.59C193.04,-105.01 192.6,-95.96 193.04,-87.73"/>
<polygon fill="#63b8ff" stroke="#63b8ff" points="196.52,-88.14 194.2,-77.8 189.56,-87.33 196.52,-88.14"/>
</a>
</g>
</g>
<!-- Node3&#45;&gt;Node2 -->
<g id="edge5_Node000003_Node000002" class="edge">
<title>Node3&#45;&gt;Node2</title>
<g id="a_edge5_Node000003_Node000002"><a xlink:title=" ">
<path fill="none" stroke="#63b8ff" d="M204.87,-76.3C206.21,-82.93 206.66,-92.11 206.2,-100.43"/>
<polygon fill="#63b8ff" stroke="#63b8ff" points="202.76,-99.75 205.07,-110.09 209.71,-100.57 202.76,-99.75"/>
</a>
</g>
</g>
<!-- Node4 -->
<g id="Node000004" class="node">
<title>Node4</title>
<g id="a_Node000004"><a xlink:title=" ">
<polygon fill="#e0e0e0" stroke="#999999" points="51.25,-20 0,-20 0,0 51.25,0 51.25,-20"/>
<text xml:space="preserve" text-anchor="middle" x="25.62" y="-6.5" font-family="Helvetica,sans-Serif" font-size="10.00">stddef.h</text>
</a>
</g>
</g>
<!-- Node3&#45;&gt;Node4 -->
<g id="edge3_Node000003_Node000004" class="edge">
<title>Node3&#45;&gt;Node4</title>
<g id="a_edge3_Node000003_Node000004"><a xlink:title=" ">
<path fill="none" stroke="#63b8ff" d="M169.32,-55.59C139.53,-46.35 94.04,-32.23 62.24,-22.36"/>
<polygon fill="#63b8ff" stroke="#63b8ff" points="63.65,-19.14 53.06,-19.51 61.57,-25.82 63.65,-19.14"/>
</a>
</g>
</g>
<!-- Node5 -->
<g id="Node000005" class="node">
<title>Node5</title>
<g id="a_Node000005"><a xlink:title=" ">
<polygon fill="#e0e0e0" stroke="#999999" points="117.75,-20 69.5,-20 69.5,0 117.75,0 117.75,-20"/>
<text xml:space="preserve" text-anchor="middle" x="93.62" y="-6.5" font-family="Helvetica,sans-Serif" font-size="10.00">stdint.h</text>
</a>
</g>
</g>
<!-- Node3&#45;&gt;Node5 -->
<g id="edge4_Node000003_Node000005" class="edge">
<title>Node3&#45;&gt;Node5</title>
<g id="a_edge4_Node000003_Node000005"><a xlink:title=" ">
<path fill="none" stroke="#63b8ff" d="M181.16,-55.59C164.92,-47.32 141.02,-35.14 122.29,-25.6"/>
<polygon fill="#63b8ff" stroke="#63b8ff" points="124.08,-22.59 113.58,-21.17 120.9,-28.82 124.08,-22.59"/>
</a>
</g>
</g>
<!-- Node6 -->
<g id="Node000006" class="node">
<title>Node6</title>
<g id="a_Node000006"><a xlink:href="stm32f411xx__spi__driver_8h.html" target="_top" xlink:title="Header file for SPI Peripheral Driver. Defines configuration structures for SPI communication (Master...">
<polygon fill="white" stroke="#666666" points="263.12,-20 136.12,-20 136.12,0 263.12,0 263.12,-20"/>
<text xml:space="preserve" text-anchor="middle" x="199.62" y="-6.5" font-family="Helvetica,sans-Serif" font-size="10.00">stm32f411xx_spi_driver.h</text>
</a>
</g>
</g>
<!-- Node3&#45;&gt;Node6 -->
<g id="edge6_Node000003_Node000006" class="edge">
<title>Node3&#45;&gt;Node6</title>
<g id="a_edge6_Node000003_Node000006"><a xlink:title=" ">
<path fill="none" stroke="#63b8ff" d="M194.36,-55.59C193.04,-49.01 192.6,-39.96 193.04,-31.73"/>
<polygon fill="#63b8ff" stroke="#63b8ff" points="196.52,-32.14 194.2,-21.8 189.56,-31.33 196.52,-32.14"/>
</a>
</g>
</g>
<!-- Node7 -->
<g id="Node000007" class="node">
<title>Node7</title>
<g id="a_Node000007"><a xlink:href="stm32f411xx__usart__driver_8h.html" target="_top" xlink:title="Header file for USART Peripheral Driver. Contains configuration structures and API prototypes for UAR...">
<polygon fill="white" stroke="#666666" points="417.62,-20 281.62,-20 281.62,0 417.62,0 417.62,-20"/>
<text xml:space="preserve" text-anchor="middle" x="349.62" y="-6.5" font-family="Helvetica,sans-Serif" font-size="10.00">stm32f411xx_usart_driver.h</text>
</a>
</g>
</g>
<!-- Node3&#45;&gt;Node7 -->
<g id="edge8_Node000003_Node000007" class="edge">
<title>Node3&#45;&gt;Node7</title>
<g id="a_edge8_Node000003_Node000007"><a xlink:title=" ">
<path fill="none" stroke="#63b8ff" d="M220.49,-55.59C242.9,-46.9 278.83,-33.89 307.17,-24.16"/>
<polygon fill="#63b8ff" stroke="#63b8ff" points="308.24,-27.5 316.58,-20.97 305.98,-20.87 308.24,-27.5"/>
</a>
</g>
</g>
<!-- Node6&#45;&gt;Node3 -->
<g id="edge7_Node000006_Node000003" class="edge">
<title>Node6&#45;&gt;Node3</title>
<g id="a_edge7_Node000006_Node000003"><a xlink:title=" ">
<path fill="none" stroke="#63b8ff" d="M204.87,-20.3C206.21,-26.93 206.66,-36.11 206.2,-44.43"/>
<polygon fill="#63b8ff" stroke="#63b8ff" points="202.76,-43.75 205.07,-54.09 209.71,-44.57 202.76,-43.75"/>
</a>
</g>
</g>
<!-- Node7&#45;&gt;Node3 -->
<g id="edge9_Node000007_Node000003" class="edge">
<title>Node7&#45;&gt;Node3</title>
<g id="a_edge9_Node000007_Node000003"><a xlink:title=" ">
<path fill="none" stroke="#63b8ff" d="M328.57,-20.48C306.08,-29.2 270.14,-42.21 241.84,-51.92"/>
<polygon fill="#63b8ff" stroke="#63b8ff" points="240.8,-48.58 232.45,-55.11 243.05,-55.21 240.8,-48.58"/>
</a>
</g>
</g>
</g>
</svg>
