<?xml version="1.0" encoding="UTF-8" standalone="no"?>
<!DOCTYPE svg PUBLIC "-//W3C//DTD SVG 1.1//EN"
 "http://www.w3.org/Graphics/SVG/1.1/DTD/svg11.dtd">
<!-- Generated by graphviz version 14.1.2 (20260124.0452)
 -->
<!-- Title: Drivers/Inc/stm32f411xx.h Pages: 1 -->
<!--zoomable 164 -->

<svg id="main" version="1.1" xmlns="http://www.w3.org/2000/svg" xmlns:xlink="http://www.w3.org/1999/xlink" xml:space="preserve" onload="init(evt)">

<style type="text/css"><![CDATA[
.node, .edge {opacity: 0.7;}
.node.selected, .edge.selected {opacity: 1;}
.edge:hover path { stroke: red; }
.edge:hover polygon { stroke: red; fill: red; }
]]></style>

<defs>
  <circle id="rim" cx="0" cy="0" r="7"/>
  <circle id="rim2" cx="0" cy="0" r="3.5"/>
  <g id="zoomPlus">
    <use xlink:href="#rim" fill="#404040"><set attributeName="fill" to="#808080" begin="zoomplus.mouseover" end="zoomplus.mouseout"/></use>
    <path d="M-4,0h8M0,-4v8" fill="none" stroke="white" stroke-width="1.5" pointer-events="none"/>
  </g>
  <g id="zoomMin">
    <use xlink:href="#rim" fill="#404040"><set attributeName="fill" to="#808080" begin="zoomminus.mouseover" end="zoomminus.mouseout"/></use>
    <path d="M-4,0h8" fill="none" stroke="white" stroke-width="1.5" pointer-events="none"/>
  </g>
  <g id="arrowUp" transform="translate(30 24)">
    <use xlink:href="#rim"/>
    <path pointer-events="none" fill="none" stroke="white" stroke-width="1.5" d="M0,-3.0v7 M-2.5,-0.5L0,-3.0L2.5,-0.5"/>
  </g>
  <g id="arrowRight" transform="rotate(90) translate(36 -43)">
    <use xlink:href="#rim"/>
    <path pointer-events="none" fill="none" stroke="white" stroke-width="1.5" d="M0,-3.0v7 M-2.5,-0.5L0,-3.0L2.5,-0.5"/>
  </g>
  <g id="arrowDown" transform="rotate(180) translate(-30 -48)">
    <use xlink:href="#rim"/>
    <path pointer-events="none" fill="none" stroke="white" stroke-width="1.5" d="M0,-3.0v7 M-2.5,-0.5L0,-3.0L2.5,-0.5"/>
  </g>
  <g id="arrowLeft" transform="rotate(270) translate(-36 17)">
    <use xlink:href="#rim"/>
    <path pointer-events="none" fill="none" stroke="white" stroke-width="1.5" d="M0,-3.0v7 M-2.5,-0.5L0,-3.0L2.5,-0.5"/>
  </g>
  <g id="resetDef">
    <use xlink:href="#rim2" fill="#404040"><set attributeName="fill" to="#808080" begin="reset.mouseover" end="reset.mouseout"/></use>
  </g>
</defs>
<script type="application/ecmascript">
var viewWidth = 551;
var viewHeight = 164;
var sectionId = 'dynsection-1';
</script>
<script type="application/ecmascript" xlink:href="svg.min.js"/>
<svg id="graph" class="graph">
<g id="viewport">
<title>Drivers/Inc/stm32f411xx.h</title>
<!-- Node1 -->
<g id="Node000001" class="node">
<title>Node1</title>
<g id="a_Node000001"><a xlink:title="MCU specific header file for STM32F411xx. Contains peripheral base addresses, register definition str...">
<polygon fill="#999999" stroke="#666666" points="406.12,-156 275.38,-156 275.38,-136 406.12,-136 406.12,-156"/>
<text xml:space="preserve" text-anchor="middle" x="340.75" y="-142.5" font-family="Helvetica,sans-Serif" font-size="10.00">Drivers/Inc/stm32f411xx.h</text>
</a>
</g>
</g>
<!-- Node2 -->
<g id="Node000002" class="node">
<title>Node2</title>
<g id="a_Node000002"><a xlink:href="mfrc522_8h.html" target="_top" xlink:title="Driver interface for MFRC522 RFID module (13.56 MHz).">
<polygon fill="white" stroke="#666666" points="120.5,-100 1,-100 1,-68 120.5,-68 120.5,-100"/>
<text xml:space="preserve" text-anchor="start" x="9" y="-86.5" font-family="Helvetica,sans-Serif" font-size="10.00">Components/MFRC522</text>
<text xml:space="preserve" text-anchor="middle" x="60.75" y="-74.5" font-family="Helvetica,sans-Serif" font-size="10.00">/mfrc522.h</text>
</a>
</g>
</g>
<!-- Node1&#45;&gt;Node2 -->
<g id="edge1_Node000001_Node000002" class="edge">
<title>Node1&#45;&gt;Node2</title>
<g id="a_edge1_Node000001_Node000002"><a xlink:title=" ">
<path fill="none" stroke="#63b8ff" d="M285.04,-133.18C242.49,-124.14 182.41,-111.34 129.75,-100 126.87,-99.38 123.93,-98.75 120.96,-98.1"/>
<polygon fill="#63b8ff" stroke="#63b8ff" points="284.29,-136.6 294.8,-135.25 285.75,-129.75 284.29,-136.6"/>
</a>
</g>
</g>
<!-- Node4 -->
<g id="Node000004" class="node">
<title>Node4</title>
<g id="a_Node000004"><a xlink:href="stm32f411xx__gpio__driver_8h.html" target="_top" xlink:title="Header file for GPIO Peripheral Driver. Defines configuration structures, macros for pin modes,...">
<polygon fill="white" stroke="#666666" points="261,-100 138.5,-100 138.5,-68 261,-68 261,-100"/>
<text xml:space="preserve" text-anchor="start" x="146.5" y="-86.5" font-family="Helvetica,sans-Serif" font-size="10.00">Drivers/Inc/stm32f411xx</text>
<text xml:space="preserve" text-anchor="middle" x="199.75" y="-74.5" font-family="Helvetica,sans-Serif" font-size="10.00">_gpio_driver.h</text>
</a>
</g>
</g>
<!-- Node1&#45;&gt;Node4 -->
<g id="edge3_Node000001_Node000004" class="edge">
<title>Node1&#45;&gt;Node4</title>
<g id="a_edge3_Node000001_Node000004"><a xlink:title=" ">
<path fill="none" stroke="#63b8ff" d="M302.97,-131.38C280.15,-122.19 251.53,-110.05 230.16,-100.49"/>
<polygon fill="#63b8ff" stroke="#63b8ff" points="301.66,-134.62 312.25,-135.07 304.25,-128.12 301.66,-134.62"/>
</a>
</g>
</g>
<!-- Node6 -->
<g id="Node000006" class="node">
<title>Node6</title>
<g id="a_Node000006"><a xlink:href="stm32f411xx__spi__driver_8h.html" target="_top" xlink:title="Header file for SPI Peripheral Driver. Defines configuration structures for SPI communication (Master...">
<polygon fill="white" stroke="#666666" points="402,-100 279.5,-100 279.5,-68 402,-68 402,-100"/>
<text xml:space="preserve" text-anchor="start" x="287.5" y="-86.5" font-family="Helvetica,sans-Serif" font-size="10.00">Drivers/Inc/stm32f411xx</text>
<text xml:space="preserve" text-anchor="middle" x="340.75" y="-74.5" font-family="Helvetica,sans-Serif" font-size="10.00">_spi_driver.h</text>
</a>
</g>
</g>
<!-- Node1&#45;&gt;Node6 -->
<g id="edge6_Node000001_Node000006" class="edge">
<title>Node1&#45;&gt;Node6</title>
<g id="a_edge6_Node000001_Node000006"><a xlink:title=" ">
<path fill="none" stroke="#63b8ff" d="M334.3,-124.31C333.77,-116.37 333.94,-107.46 334.8,-100.14"/>
<polygon fill="#63b8ff" stroke="#63b8ff" points="330.81,-124.62 335.5,-134.12 337.76,-123.77 330.81,-124.62"/>
</a>
</g>
</g>
<!-- Node8 -->
<g id="Node000008" class="node">
<title>Node8</title>
<g id="a_Node000008"><a xlink:href="stm32f411xx__usart__driver_8h.html" target="_top" xlink:title="Header file for USART Peripheral Driver. Contains configuration structures and API prototypes for UAR...">
<polygon fill="white" stroke="#666666" points="543,-100 420.5,-100 420.5,-68 543,-68 543,-100"/>
<text xml:space="preserve" text-anchor="start" x="428.5" y="-86.5" font-family="Helvetica,sans-Serif" font-size="10.00">Drivers/Inc/stm32f411xx</text>
<text xml:space="preserve" text-anchor="middle" x="481.75" y="-74.5" font-family="Helvetica,sans-Serif" font-size="10.00">_usart_driver.h</text>
</a>
</g>
</g>
<!-- Node1&#45;&gt;Node8 -->
<g id="edge9_Node000001_Node000008" class="edge">
<title>Node1&#45;&gt;Node8</title>
<g id="a_edge9_Node000001_Node000008"><a xlink:title=" ">
<path fill="none" stroke="#63b8ff" d="M368.12,-130.87C388.39,-121.75 416.25,-109.87 439.35,-100.49"/>
<polygon fill="#63b8ff" stroke="#63b8ff" points="366.74,-127.66 359.1,-135 369.65,-134.02 366.74,-127.66"/>
</a>
</g>
</g>
<!-- Node3 -->
<g id="Node000003" class="node">
<title>Node3</title>
<g id="a_Node000003"><a xlink:href="mfrc522_8c.html" target="_top" xlink:title="Implementation of MFRC522 RFID module driver.">
<polygon fill="white" stroke="#666666" points="119.5,-32 0,-32 0,0 119.5,0 119.5,-32"/>
<text xml:space="preserve" text-anchor="start" x="8" y="-18.5" font-family="Helvetica,sans-Serif" font-size="10.00">Components/MFRC522</text>
<text xml:space="preserve" text-anchor="middle" x="59.75" y="-6.5" font-family="Helvetica,sans-Serif" font-size="10.00">/mfrc522.c</text>
</a>
</g>
</g>
<!-- Node2&#45;&gt;Node3 -->
<g id="edge2_Node000002_Node000003" class="edge">
<title>Node2&#45;&gt;Node3</title>
<g id="a_edge2_Node000002_Node000003"><a xlink:title=" ">
<path fill="none" stroke="#63b8ff" d="M60.35,-56.31C60.22,-48.12 60.09,-39.38 59.98,-32.22"/>
<polygon fill="#63b8ff" stroke="#63b8ff" points="56.84,-56.23 60.5,-66.18 63.84,-56.13 56.84,-56.23"/>
</a>
</g>
</g>
<!-- Node4&#45;&gt;Node1 -->
<g id="edge4_Node000004_Node000001" class="edge">
<title>Node4&#45;&gt;Node1</title>
<g id="a_edge4_Node000004_Node000001"><a xlink:title=" ">
<path fill="none" stroke="#63b8ff" d="M252.69,-104.81C277.83,-115.18 306.11,-127.41 323.78,-135.62"/>
<polygon fill="#63b8ff" stroke="#63b8ff" points="254.13,-101.61 243.55,-101.06 251.47,-108.09 254.13,-101.61"/>
</a>
</g>
</g>
<!-- Node5 -->
<g id="Node000005" class="node">
<title>Node5</title>
<g id="a_Node000005"><a xlink:href="stm32f411xx__gpio__driver_8c.html" target="_top" xlink:title="Implementation of GPIO Peripheral Driver. Provides functions for GPIO initialization,...">
<polygon fill="white" stroke="#666666" points="261.75,-32 137.75,-32 137.75,0 261.75,0 261.75,-32"/>
<text xml:space="preserve" text-anchor="start" x="145.75" y="-18.5" font-family="Helvetica,sans-Serif" font-size="10.00">Drivers/Src/stm32f411xx</text>
<text xml:space="preserve" text-anchor="middle" x="199.75" y="-6.5" font-family="Helvetica,sans-Serif" font-size="10.00">_gpio_driver.c</text>
</a>
</g>
</g>
<!-- Node4&#45;&gt;Node5 -->
<g id="edge5_Node000004_Node000005" class="edge">
<title>Node4&#45;&gt;Node5</title>
<g id="a_edge5_Node000004_Node000005"><a xlink:title=" ">
<path fill="none" stroke="#63b8ff" d="M199.75,-56.31C199.75,-48.12 199.75,-39.38 199.75,-32.22"/>
<polygon fill="#63b8ff" stroke="#63b8ff" points="196.25,-56.18 199.75,-66.18 203.25,-56.18 196.25,-56.18"/>
</a>
</g>
</g>
<!-- Node6&#45;&gt;Node1 -->
<g id="edge7_Node000006_Node000001" class="edge">
<title>Node6&#45;&gt;Node1</title>
<g id="a_edge7_Node000006_Node000001"><a xlink:title=" ">
<path fill="none" stroke="#63b8ff" d="M347.46,-111.4C347.67,-120.05 347.12,-129.1 345.81,-135.62"/>
<polygon fill="#63b8ff" stroke="#63b8ff" points="350.96,-111.39 346.8,-101.65 343.98,-111.86 350.96,-111.39"/>
</a>
</g>
</g>
<!-- Node7 -->
<g id="Node000007" class="node">
<title>Node7</title>
<g id="a_Node000007"><a xlink:href="stm32f411xx__spi__driver_8c.html" target="_top" xlink:title="Implementation of SPI Peripheral Driver. Supports both Blocking and Non&#45;Blocking APIs for data transm...">
<polygon fill="white" stroke="#666666" points="403.75,-32 279.75,-32 279.75,0 403.75,0 403.75,-32"/>
<text xml:space="preserve" text-anchor="start" x="287.75" y="-18.5" font-family="Helvetica,sans-Serif" font-size="10.00">Drivers/Src/stm32f411xx</text>
<text xml:space="preserve" text-anchor="middle" x="341.75" y="-6.5" font-family="Helvetica,sans-Serif" font-size="10.00">_spi_driver.c</text>
</a>
</g>
</g>
<!-- Node6&#45;&gt;Node7 -->
<g id="edge8_Node000006_Node000007" class="edge">
<title>Node6&#45;&gt;Node7</title>
<g id="a_edge8_Node000006_Node000007"><a xlink:title=" ">
<path fill="none" stroke="#63b8ff" d="M341.15,-56.31C341.28,-48.12 341.41,-39.38 341.52,-32.22"/>
<polygon fill="#63b8ff" stroke="#63b8ff" points="337.66,-56.13 341,-66.18 344.66,-56.23 337.66,-56.13"/>
</a>
</g>
</g>
<!-- Node8&#45;&gt;Node1 -->
<g id="edge10_Node000008_Node000001" class="edge">
<title>Node8&#45;&gt;Node1</title>
<g id="a_edge10_Node000008_Node000001"><a xlink:title=" ">
<path fill="none" stroke="#63b8ff" d="M440.96,-105.09C417.45,-115.4 388.62,-127.48 367.84,-135.62"/>
<polygon fill="#63b8ff" stroke="#63b8ff" points="442.23,-108.35 449.96,-101.1 439.4,-101.95 442.23,-108.35"/>
</a>
</g>
</g>
</g>
</svg>

<g id="navigator" transform="translate(0 0)" fill="#404254">
  <rect fill="#f2f5e9" fill-opacity="0.5" stroke="#606060" stroke-width=".5" x="0" y="0" width="60" height="60"/>
  <use id="zoomplus" xlink:href="#zoomPlus" x="17" y="9" onmousedown="handleZoom(evt,'in')"/>
  <use id="zoomminus" xlink:href="#zoomMin" x="42" y="9" onmousedown="handleZoom(evt,'out')"/>
  <use id="reset" xlink:href="#resetDef" x="30" y="36" onmousedown="handleReset()"/>
   <use id="arrowup" xlink:href="#arrowUp" x="0" y="0" onmousedown="handlePan(0,-1)"/>
  <use id="arrowright" xlink:href="#arrowRight" x="0" y="0" onmousedown="handlePan(1,0)"/>
  <use id="arrowdown" xlink:href="#arrowDown" x="0" y="0" onmousedown="handlePan(0,1)"/>
  <use id="arrowleft" xlink:href="#arrowLeft" x="0" y="0" onmousedown="handlePan(-1,0)"/>
</g>
<svg viewBox="0 0 15 15" width="100%" height="30px" preserveAspectRatio="xMaxYMin meet">
 <g id="arrow_out" transform="scale(0.3 0.3)">
  <a xlink:href="stm32f411xx_8h__dep__incl_org.svg" target="_base">
   <rect id="button" ry="5" rx="5" y="6" x="6" height="38" width="38"
        fill="#f2f5e9" fill-opacity="0.5" stroke="#606060" stroke-width="1.0"/>
   <path id="arrow"
     d="M 11.500037,31.436501 C 11.940474,20.09759 22.043105,11.32322 32.158766,21.979434 L 37.068811,17.246167 C 37.068811,17.246167 37.088388,32 37.088388,32 L 22.160133,31.978069 C 22.160133,31.978069 26.997745,27.140456 26.997745,27.140456 C 18.528582,18.264221 13.291696,25.230495 11.500037,31.436501 z"
     style="fill:#404040;"/>
  </a>
 </g>
</svg>

<style type='text/css'>
<![CDATA[
[data-mouse-over-selected='false'] { opacity: 0.7; }
[data-mouse-over-selected='true']  { opacity: 1.0; }
]]>
</style>
<script type="application/ecmascript"><![CDATA[
document.addEventListener('DOMContentLoaded', (event) => {
  highlightEdges();
  highlightAdjacentNodes();
});
]]></script>
</svg>
