<?xml version="1.0" encoding="UTF-8" standalone="no"?>
<!DOCTYPE svg PUBLIC "-//W3C//DTD SVG 1.1//EN"
 "http://www.w3.org/Graphics/SVG/1.1/DTD/svg11.dtd">
<!-- Generated by graphviz version 14.1.2 (20260124.0452)
 -->
<!-- Title: Drivers/Inc/stm32f411xx_usart_driver.h Pages: 1 -->
<svg width="412pt" height="232pt"
 viewBox="0.00 0.00 412.00 232.00" xmlns="http://www.w3.org/2000/svg" xmlns:xlink="http://www.w3.org/1999/xlink">
<g id="graph0" class="graph" transform="scale(1 1) rotate(0) translate(4 228)">
<title>Drivers/Inc/stm32f411xx_usart_driver.h</title>
<!-- Node1 -->
<g id="Node000001" class="node">
<title>Node1</title>
<g id="a_Node000001"><a xlink:title="Header file for USART Peripheral Driver. Contains configuration structures and API prototypes for UAR...">
<polygon fill="#999999" stroke="#666666" points="261,-224 138.5,-224 138.5,-192 261,-192 261,-224"/>
<text xml:space="preserve" text-anchor="start" x="146.5" y="-210.5" font-family="Helvetica,sans-Serif" font-size="10.00">Drivers/Inc/stm32f411xx</text>
<text xml:space="preserve" text-anchor="middle" x="199.75" y="-198.5" font-family="Helvetica,sans-Serif" font-size="10.00">_usart_driver.h</text>
</a>
</g>
</g>
<!-- Node2 -->
<g id="Node000002" class="node">
<title>Node2</title>
<g id="a_Node000002"><a xlink:href="stm32f411xx_8h.html" target="_top" xlink:title="MCU specific header file for STM32F411xx. Contains peripheral base addresses, register definition str...">
<polygon fill="white" stroke="#666666" points="265.12,-156 134.38,-156 134.38,-136 265.12,-136 265.12,-156"/>
<text xml:space="preserve" text-anchor="middle" x="199.75" y="-142.5" font-family="Helvetica,sans-Serif" font-size="10.00">Drivers/Inc/stm32f411xx.h</text>
</a>
</g>
</g>
<!-- Node1&#45;&gt;Node2 -->
<g id="edge1_Node000001_Node000002" class="edge">
<title>Node1&#45;&gt;Node2</title>
<g id="a_edge1_Node000001_Node000002"><a xlink:title=" ">
<path fill="none" stroke="#63b8ff" d="M193.03,-180.08C192.86,-171.6 193.41,-162.8 194.68,-156.41"/>
<polygon fill="#63b8ff" stroke="#63b8ff" points="189.54,-180.28 193.67,-190.04 196.52,-179.84 189.54,-180.28"/>
</a>
</g>
</g>
<!-- Node2&#45;&gt;Node1 -->
<g id="edge10_Node000002_Node000001" class="edge">
<title>Node2&#45;&gt;Node1</title>
<g id="a_edge10_Node000002_Node000001"><a xlink:title=" ">
<path fill="none" stroke="#63b8ff" d="M206.2,-167.6C206.72,-175.45 206.57,-184.26 205.74,-191.55"/>
<polygon fill="#63b8ff" stroke="#63b8ff" points="209.7,-167.41 205,-157.91 202.75,-168.26 209.7,-167.41"/>
</a>
</g>
</g>
<!-- Node3 -->
<g id="Node000003" class="node">
<title>Node3</title>
<g id="a_Node000003"><a xlink:href="mfrc522_8h.html" target="_top" xlink:title="Driver interface for MFRC522 RFID module (13.56 MHz).">
<polygon fill="white" stroke="#666666" points="120.5,-100 1,-100 1,-68 120.5,-68 120.5,-100"/>
<text xml:space="preserve" text-anchor="start" x="9" y="-86.5" font-family="Helvetica,sans-Serif" font-size="10.00">Components/MFRC522</text>
<text xml:space="preserve" text-anchor="middle" x="60.75" y="-74.5" font-family="Helvetica,sans-Serif" font-size="10.00">/mfrc522.h</text>
</a>
</g>
</g>
<!-- Node2&#45;&gt;Node3 -->
<g id="edge2_Node000002_Node000003" class="edge">
<title>Node2&#45;&gt;Node3</title>
<g id="a_edge2_Node000002_Node000003"><a xlink:title=" ">
<path fill="none" stroke="#63b8ff" d="M167.61,-131.12C146.39,-121.97 118.57,-109.96 96.64,-100.49"/>
<polygon fill="#63b8ff" stroke="#63b8ff" points="166.07,-134.28 176.64,-135.03 168.85,-127.85 166.07,-134.28"/>
</a>
</g>
</g>
<!-- Node5 -->
<g id="Node000005" class="node">
<title>Node5</title>
<g id="a_Node000005"><a xlink:href="stm32f411xx__gpio__driver_8h.html" target="_top" xlink:title="Header file for GPIO Peripheral Driver. Defines configuration structures, macros for pin modes,...">
<polygon fill="white" stroke="#666666" points="261,-100 138.5,-100 138.5,-68 261,-68 261,-100"/>
<text xml:space="preserve" text-anchor="start" x="146.5" y="-86.5" font-family="Helvetica,sans-Serif" font-size="10.00">Drivers/Inc/stm32f411xx</text>
<text xml:space="preserve" text-anchor="middle" x="199.75" y="-74.5" font-family="Helvetica,sans-Serif" font-size="10.00">_gpio_driver.h</text>
</a>
</g>
</g>
<!-- Node2&#45;&gt;Node5 -->
<g id="edge4_Node000002_Node000005" class="edge">
<title>Node2&#45;&gt;Node5</title>
<g id="a_edge4_Node000002_Node000005"><a xlink:title=" ">
<path fill="none" stroke="#63b8ff" d="M193.3,-124.31C192.77,-116.37 192.94,-107.46 193.8,-100.14"/>
<polygon fill="#63b8ff" stroke="#63b8ff" points="189.81,-124.62 194.5,-134.12 196.76,-123.77 189.81,-124.62"/>
</a>
</g>
</g>
<!-- Node7 -->
<g id="Node000007" class="node">
<title>Node7</title>
<g id="a_Node000007"><a xlink:href="stm32f411xx__spi__driver_8h.html" target="_top" xlink:title="Header file for SPI Peripheral Driver. Defines configuration structures for SPI communication (Master...">
<polygon fill="white" stroke="#666666" points="402,-100 279.5,-100 279.5,-68 402,-68 402,-100"/>
<text xml:space="preserve" text-anchor="start" x="287.5" y="-86.5" font-family="Helvetica,sans-Serif" font-size="10.00">Drivers/Inc/stm32f411xx</text>
<text xml:space="preserve" text-anchor="middle" x="340.75" y="-74.5" font-family="Helvetica,sans-Serif" font-size="10.00">_spi_driver.h</text>
</a>
</g>
</g>
<!-- Node2&#45;&gt;Node7 -->
<g id="edge7_Node000002_Node000007" class="edge">
<title>Node2&#45;&gt;Node7</title>
<g id="a_edge7_Node000002_Node000007"><a xlink:title=" ">
<path fill="none" stroke="#63b8ff" d="M227.12,-130.87C247.39,-121.75 275.25,-109.87 298.35,-100.49"/>
<polygon fill="#63b8ff" stroke="#63b8ff" points="225.74,-127.66 218.1,-135 228.65,-134.02 225.74,-127.66"/>
</a>
</g>
</g>
<!-- Node4 -->
<g id="Node000004" class="node">
<title>Node4</title>
<g id="a_Node000004"><a xlink:href="mfrc522_8c.html" target="_top" xlink:title="Implementation of MFRC522 RFID module driver.">
<polygon fill="white" stroke="#666666" points="119.5,-32 0,-32 0,0 119.5,0 119.5,-32"/>
<text xml:space="preserve" text-anchor="start" x="8" y="-18.5" font-family="Helvetica,sans-Serif" font-size="10.00">Components/MFRC522</text>
<text xml:space="preserve" text-anchor="middle" x="59.75" y="-6.5" font-family="Helvetica,sans-Serif" font-size="10.00">/mfrc522.c</text>
</a>
</g>
</g>
<!-- Node3&#45;&gt;Node4 -->
<g id="edge3_Node000003_Node000004" class="edge">
<title>Node3&#45;&gt;Node4</title>
<g id="a_edge3_Node000003_Node000004"><a xlink:title=" ">
<path fill="none" stroke="#63b8ff" d="M60.35,-56.31C60.22,-48.12 60.09,-39.38 59.98,-32.22"/>
<polygon fill="#63b8ff" stroke="#63b8ff" points="56.84,-56.23 60.5,-66.18 63.84,-56.13 56.84,-56.23"/>
</a>
</g>
</g>
<!-- Node5&#45;&gt;Node2 -->
<g id="edge5_Node000005_Node000002" class="edge">
<title>Node5&#45;&gt;Node2</title>
<g id="a_edge5_Node000005_Node000002"><a xlink:title=" ">
<path fill="none" stroke="#63b8ff" d="M206.46,-111.4C206.67,-120.05 206.12,-129.1 204.81,-135.62"/>
<polygon fill="#63b8ff" stroke="#63b8ff" points="209.96,-111.39 205.8,-101.65 202.98,-111.86 209.96,-111.39"/>
</a>
</g>
</g>
<!-- Node6 -->
<g id="Node000006" class="node">
<title>Node6</title>
<g id="a_Node000006"><a xlink:href="stm32f411xx__gpio__driver_8c.html" target="_top" xlink:title="Implementation of GPIO Peripheral Driver. Provides functions for GPIO initialization,...">
<polygon fill="white" stroke="#666666" points="261.75,-32 137.75,-32 137.75,0 261.75,0 261.75,-32"/>
<text xml:space="preserve" text-anchor="start" x="145.75" y="-18.5" font-family="Helvetica,sans-Serif" font-size="10.00">Drivers/Src/stm32f411xx</text>
<text xml:space="preserve" text-anchor="middle" x="199.75" y="-6.5" font-family="Helvetica,sans-Serif" font-size="10.00">_gpio_driver.c</text>
</a>
</g>
</g>
<!-- Node5&#45;&gt;Node6 -->
<g id="edge6_Node000005_Node000006" class="edge">
<title>Node5&#45;&gt;Node6</title>
<g id="a_edge6_Node000005_Node000006"><a xlink:title=" ">
<path fill="none" stroke="#63b8ff" d="M199.75,-56.31C199.75,-48.12 199.75,-39.38 199.75,-32.22"/>
<polygon fill="#63b8ff" stroke="#63b8ff" points="196.25,-56.18 199.75,-66.18 203.25,-56.18 196.25,-56.18"/>
</a>
</g>
</g>
<!-- Node7&#45;&gt;Node2 -->
<g id="edge8_Node000007_Node000002" class="edge">
<title>Node7&#45;&gt;Node2</title>
<g id="a_edge8_Node000007_Node000002"><a xlink:title=" ">
<path fill="none" stroke="#63b8ff" d="M299.96,-105.09C276.45,-115.4 247.62,-127.48 226.84,-135.62"/>
<polygon fill="#63b8ff" stroke="#63b8ff" points="301.23,-108.35 308.96,-101.1 298.4,-101.95 301.23,-108.35"/>
</a>
</g>
</g>
<!-- Node8 -->
<g id="Node000008" class="node">
<title>Node8</title>
<g id="a_Node000008"><a xlink:href="stm32f411xx__spi__driver_8c.html" target="_top" xlink:title="Implementation of SPI Peripheral Driver. Supports both Blocking and Non&#45;Blocking APIs for data transm...">
<polygon fill="white" stroke="#666666" points="403.75,-32 279.75,-32 279.75,0 403.75,0 403.75,-32"/>
<text xml:space="preserve" text-anchor="start" x="287.75" y="-18.5" font-family="Helvetica,sans-Serif" font-size="10.00">Drivers/Src/stm32f411xx</text>
<text xml:space="preserve" text-anchor="middle" x="341.75" y="-6.5" font-family="Helvetica,sans-Serif" font-size="10.00">_spi_driver.c</text>
</a>
</g>
</g>
<!-- Node7&#45;&gt;Node8 -->
<g id="edge9_Node000007_Node000008" class="edge">
<title>Node7&#45;&gt;Node8</title>
<g id="a_edge9_Node000007_Node000008"><a xlink:title=" ">
<path fill="none" stroke="#63b8ff" d="M341.15,-56.31C341.28,-48.12 341.41,-39.38 341.52,-32.22"/>
<polygon fill="#63b8ff" stroke="#63b8ff" points="337.66,-56.13 341,-66.18 344.66,-56.23 337.66,-56.13"/>
</a>
</g>
</g>
</g>
</svg>
