<?xml version="1.0" encoding="UTF-8" standalone="no"?>
<!DOCTYPE svg PUBLIC "-//W3C//DTD SVG 1.1//EN"
 "http://www.w3.org/Graphics/SVG/1.1/DTD/svg11.dtd">
<!-- Generated by graphviz version 14.1.2 (20260124.0452)
 -->
<!-- Title: Drivers/Inc/stm32f411xx_usart_driver.h Pages: 1 -->
<svg width="421pt" height="152pt"
 viewBox="0.00 0.00 421.00 152.00" xmlns="http://www.w3.org/2000/svg" xmlns:xlink="http://www.w3.org/1999/xlink">

<svg id="main" version="1.1" xmlns="http://www.w3.org/2000/svg" xmlns:xlink="http://www.w3.org/1999/xlink" xml:space="preserve">

<style type="text/css"><![CDATA[
.node, .edge {opacity: 0.7;}
.node.selected, .edge.selected {opacity: 1;}
.edge:hover path { stroke: red; }
.edge:hover polygon { stroke: red; fill: red; }
]]></style>
<script type="application/ecmascript" xlink:href="svg.min.js"/>
<svg id="graph" class="graph">
<g id="graph0" class="graph" transform="scale(1 1) rotate(0) translate(4 148)">
<title>Drivers/Inc/stm32f411xx_usart_driver.h</title>
<!-- Node1 -->
<g id="Node000001" class="node">
<title>Node1</title>
<g id="a_Node000001"><a xlink:title="Header file for USART Peripheral Driver. Contains configuration structures and API prototypes for UAR...">
<polygon fill="#999999" stroke="#666666" points="262.88,-144 140.38,-144 140.38,-112 262.88,-112 262.88,-144"/>
<text xml:space="preserve" text-anchor="start" x="148.38" y="-130.5" font-family="Helvetica,sans-Serif" font-size="10.00">Drivers/Inc/stm32f411xx</text>
<text xml:space="preserve" text-anchor="middle" x="201.62" y="-118.5" font-family="Helvetica,sans-Serif" font-size="10.00">_usart_driver.h</text>
</a>
</g>
</g>
<!-- Node2 -->
<g id="Node000002" class="node">
<title>Node2</title>
<g id="a_Node000002"><a xlink:href="stm32f411xx_8h.html" target="_top" xlink:title="MCU specific header file for STM32F411xx. Contains peripheral base addresses, register definition str...">
<polygon fill="white" stroke="#666666" points="241.5,-76 161.75,-76 161.75,-56 241.5,-56 241.5,-76"/>
<text xml:space="preserve" text-anchor="middle" x="201.62" y="-62.5" font-family="Helvetica,sans-Serif" font-size="10.00">stm32f411xx.h</text>
</a>
</g>
</g>
<!-- Node1&#45;&gt;Node2 -->
<g id="edge1_Node000001_Node000002" class="edge">
<title>Node1&#45;&gt;Node2</title>
<g id="a_edge1_Node000001_Node000002"><a xlink:title=" ">
<path fill="none" stroke="#63b8ff" d="M195.64,-111.55C194.81,-104.26 194.66,-95.45 195.18,-87.6"/>
<polygon fill="#63b8ff" stroke="#63b8ff" points="198.62,-88.26 196.37,-77.91 191.68,-87.41 198.62,-88.26"/>
</a>
</g>
</g>
<!-- Node2&#45;&gt;Node1 -->
<g id="edge8_Node000002_Node000001" class="edge">
<title>Node2&#45;&gt;Node1</title>
<g id="a_edge8_Node000002_Node000001"><a xlink:title=" ">
<path fill="none" stroke="#63b8ff" d="M206.69,-76.41C207.97,-82.8 208.52,-91.6 208.34,-100.08"/>
<polygon fill="#63b8ff" stroke="#63b8ff" points="204.85,-99.84 207.71,-110.04 211.84,-100.28 204.85,-99.84"/>
</a>
</g>
</g>
<!-- Node3 -->
<g id="Node000003" class="node">
<title>Node3</title>
<g id="a_Node000003"><a xlink:title=" ">
<polygon fill="#e0e0e0" stroke="#999999" points="51.25,-20 0,-20 0,0 51.25,0 51.25,-20"/>
<text xml:space="preserve" text-anchor="middle" x="25.62" y="-6.5" font-family="Helvetica,sans-Serif" font-size="10.00">stddef.h</text>
</a>
</g>
</g>
<!-- Node2&#45;&gt;Node3 -->
<g id="edge2_Node000002_Node000003" class="edge">
<title>Node2&#45;&gt;Node3</title>
<g id="a_edge2_Node000002_Node000003"><a xlink:title=" ">
<path fill="none" stroke="#63b8ff" d="M170.97,-55.59C140.75,-46.32 94.55,-32.15 62.38,-22.28"/>
<polygon fill="#63b8ff" stroke="#63b8ff" points="63.67,-19.01 53.08,-19.42 61.62,-25.7 63.67,-19.01"/>
</a>
</g>
</g>
<!-- Node4 -->
<g id="Node000004" class="node">
<title>Node4</title>
<g id="a_Node000004"><a xlink:title=" ">
<polygon fill="#e0e0e0" stroke="#999999" points="117.75,-20 69.5,-20 69.5,0 117.75,0 117.75,-20"/>
<text xml:space="preserve" text-anchor="middle" x="93.62" y="-6.5" font-family="Helvetica,sans-Serif" font-size="10.00">stdint.h</text>
</a>
</g>
</g>
<!-- Node2&#45;&gt;Node4 -->
<g id="edge3_Node000002_Node000004" class="edge">
<title>Node2&#45;&gt;Node4</title>
<g id="a_edge3_Node000002_Node000004"><a xlink:title=" ">
<path fill="none" stroke="#63b8ff" d="M182.81,-55.59C166.27,-47.32 141.91,-35.14 122.83,-25.6"/>
<polygon fill="#63b8ff" stroke="#63b8ff" points="124.45,-22.5 113.94,-21.16 121.32,-28.76 124.45,-22.5"/>
</a>
</g>
</g>
<!-- Node5 -->
<g id="Node000005" class="node">
<title>Node5</title>
<g id="a_Node000005"><a xlink:href="stm32f411xx__gpio__driver_8h.html" target="_top" xlink:title="Header file for GPIO Peripheral Driver. Defines configuration structures, macros for pin modes,...">
<polygon fill="white" stroke="#666666" points="267.75,-20 135.5,-20 135.5,0 267.75,0 267.75,-20"/>
<text xml:space="preserve" text-anchor="middle" x="201.62" y="-6.5" font-family="Helvetica,sans-Serif" font-size="10.00">stm32f411xx_gpio_driver.h</text>
</a>
</g>
</g>
<!-- Node2&#45;&gt;Node5 -->
<g id="edge4_Node000002_Node000005" class="edge">
<title>Node2&#45;&gt;Node5</title>
<g id="a_edge4_Node000002_Node000005"><a xlink:title=" ">
<path fill="none" stroke="#63b8ff" d="M196.36,-55.59C195.04,-49.01 194.6,-39.96 195.04,-31.73"/>
<polygon fill="#63b8ff" stroke="#63b8ff" points="198.52,-32.14 196.2,-21.8 191.56,-31.33 198.52,-32.14"/>
</a>
</g>
</g>
<!-- Node6 -->
<g id="Node000006" class="node">
<title>Node6</title>
<g id="a_Node000006"><a xlink:href="stm32f411xx__spi__driver_8h.html" target="_top" xlink:title="Header file for SPI Peripheral Driver. Defines configuration structures for SPI communication (Master...">
<polygon fill="white" stroke="#666666" points="413.12,-20 286.12,-20 286.12,0 413.12,0 413.12,-20"/>
<text xml:space="preserve" text-anchor="middle" x="349.62" y="-6.5" font-family="Helvetica,sans-Serif" font-size="10.00">stm32f411xx_spi_driver.h</text>
</a>
</g>
</g>
<!-- Node2&#45;&gt;Node6 -->
<g id="edge6_Node000002_Node000006" class="edge">
<title>Node2&#45;&gt;Node6</title>
<g id="a_edge6_Node000002_Node000006"><a xlink:title=" ">
<path fill="none" stroke="#63b8ff" d="M222.14,-55.59C244.23,-46.9 279.68,-33.89 307.66,-24.16"/>
<polygon fill="#63b8ff" stroke="#63b8ff" points="308.61,-27.54 316.93,-20.97 306.34,-20.92 308.61,-27.54"/>
</a>
</g>
</g>
<!-- Node5&#45;&gt;Node2 -->
<g id="edge5_Node000005_Node000002" class="edge">
<title>Node5&#45;&gt;Node2</title>
<g id="a_edge5_Node000005_Node000002"><a xlink:title=" ">
<path fill="none" stroke="#63b8ff" d="M206.87,-20.3C208.21,-26.93 208.66,-36.11 208.2,-44.43"/>
<polygon fill="#63b8ff" stroke="#63b8ff" points="204.76,-43.75 207.07,-54.09 211.71,-44.57 204.76,-43.75"/>
</a>
</g>
</g>
<!-- Node6&#45;&gt;Node2 -->
<g id="edge7_Node000006_Node000002" class="edge">
<title>Node6&#45;&gt;Node2</title>
<g id="a_edge7_Node000006_Node000002"><a xlink:title=" ">
<path fill="none" stroke="#63b8ff" d="M328.93,-20.48C306.76,-29.2 271.29,-42.21 243.35,-51.92"/>
<polygon fill="#63b8ff" stroke="#63b8ff" points="242.42,-48.54 234.1,-55.1 244.7,-55.16 242.42,-48.54"/>
</a>
</g>
</g>
</g>
</svg>
</svg>

<style type='text/css'>
<![CDATA[
[data-mouse-over-selected='false'] { opacity: 0.7; }
[data-mouse-over-selected='true']  { opacity: 1.0; }
]]>
</style>
<script type="application/ecmascript"><![CDATA[
document.addEventListener('DOMContentLoaded', (event) => {
  highlightEdges();
  highlightAdjacentNodes();
});
]]></script>
</svg>
