<?xml version="1.0" encoding="UTF-8" standalone="no"?>
<!DOCTYPE svg PUBLIC "-//W3C//DTD SVG 1.1//EN"
 "http://www.w3.org/Graphics/SVG/1.1/DTD/svg11.dtd">
<!-- Generated by graphviz version 14.1.2 (20260124.0452)
 -->
<!-- Title: EXTI_RegDef_t Pages: 1 -->
<svg width="86pt" height="140pt"
 viewBox="0.00 0.00 86.00 140.00" xmlns="http://www.w3.org/2000/svg" xmlns:xlink="http://www.w3.org/1999/xlink">
<g id="graph0" class="graph" transform="scale(1 1) rotate(0) translate(4 136)">
<title>EXTI_RegDef_t</title>
<!-- Node1 -->
<g id="Node000001" class="node">
<title>Node1</title>
<g id="a_Node000001"><a xlink:title="Peripheral register definition structure for EXTI.">
<polygon fill="#999999" stroke="none" points="77.75,-132 0,-132 0,0 77.75,0 77.75,-132"/>
<text xml:space="preserve" text-anchor="start" x="4" y="-118.5" font-family="Helvetica,sans-Serif" font-size="10.00">EXTI_RegDef_t</text>
<text xml:space="preserve" text-anchor="start" x="10.5" y="-102.5" font-family="Helvetica,sans-Serif" font-size="10.00">+</text>
<text xml:space="preserve" text-anchor="start" x="27" y="-102.5" font-family="Helvetica,sans-Serif" font-size="10.00">IMR</text>
<text xml:space="preserve" text-anchor="start" x="10.5" y="-86.5" font-family="Helvetica,sans-Serif" font-size="10.00">+</text>
<text xml:space="preserve" text-anchor="start" x="27" y="-86.5" font-family="Helvetica,sans-Serif" font-size="10.00">EMR</text>
<text xml:space="preserve" text-anchor="start" x="10.5" y="-70.5" font-family="Helvetica,sans-Serif" font-size="10.00">+</text>
<text xml:space="preserve" text-anchor="start" x="27" y="-70.5" font-family="Helvetica,sans-Serif" font-size="10.00">RTSR</text>
<text xml:space="preserve" text-anchor="start" x="10.5" y="-54.5" font-family="Helvetica,sans-Serif" font-size="10.00">+</text>
<text xml:space="preserve" text-anchor="start" x="27" y="-54.5" font-family="Helvetica,sans-Serif" font-size="10.00">FTSR</text>
<text xml:space="preserve" text-anchor="start" x="10.5" y="-38.5" font-family="Helvetica,sans-Serif" font-size="10.00">+</text>
<text xml:space="preserve" text-anchor="start" x="27" y="-38.5" font-family="Helvetica,sans-Serif" font-size="10.00">SWIER</text>
<text xml:space="preserve" text-anchor="start" x="10.5" y="-22.5" font-family="Helvetica,sans-Serif" font-size="10.00">+</text>
<text xml:space="preserve" text-anchor="start" x="27" y="-22.5" font-family="Helvetica,sans-Serif" font-size="10.00">PR</text>
<text xml:space="preserve" text-anchor="start" x="37.38" y="-6.5" font-family="Helvetica,sans-Serif" font-size="10.00"> </text>
<polygon fill="#666666" stroke="#666666" points="0,-114 0,-114 77.75,-114 77.75,-114 0,-114"/>
<polygon fill="#666666" stroke="#666666" points="0,-18 0,-18 25,-18 25,-18 0,-18"/>
<polygon fill="#666666" stroke="#666666" points="25,-18 25,-18 77.75,-18 77.75,-18 25,-18"/>
<polygon fill="none" stroke="#666666" points="0,0 0,-132 77.75,-132 77.75,0 0,0"/>
</a>
</g>
</g>
</g>
</svg>
