<?xml version="1.0" encoding="UTF-8" standalone="no"?>
<!DOCTYPE svg PUBLIC "-//W3C//DTD SVG 1.1//EN"
 "http://www.w3.org/Graphics/SVG/1.1/DTD/svg11.dtd">
<!-- Generated by graphviz version 14.1.2 (20260124.0452)
 -->
<!-- Title: Examples/RFID_RC522_SPI_Demo/syscalls.c Pages: 1 -->
<svg width="554pt" height="96pt"
 viewBox="0.00 0.00 554.00 96.00" xmlns="http://www.w3.org/2000/svg" xmlns:xlink="http://www.w3.org/1999/xlink">
<g id="graph0" class="graph" transform="scale(1 1) rotate(0) translate(4 92)">
<title>Examples/RFID_RC522_SPI_Demo/syscalls.c</title>
<!-- Node1 -->
<g id="Node000001" class="node">
<title>Node1</title>
<g id="a_Node000001"><a xlink:title="STM32CubeIDE Minimal System calls file.">
<polygon fill="#999999" stroke="#666666" points="325,-88 202.5,-88 202.5,-56 325,-56 325,-88"/>
<text xml:space="preserve" text-anchor="start" x="210.5" y="-74.5" font-family="Helvetica,sans-Serif" font-size="10.00">Examples/RFID_RC522</text>
<text xml:space="preserve" text-anchor="middle" x="263.75" y="-62.5" font-family="Helvetica,sans-Serif" font-size="10.00">_SPI_Demo/syscalls.c</text>
</a>
</g>
</g>
<!-- Node2 -->
<g id="Node000002" class="node">
<title>Node2</title>
<g id="a_Node000002"><a xlink:title=" ">
<polygon fill="#e0e0e0" stroke="#999999" points="59.5,-20 0,-20 0,0 59.5,0 59.5,-20"/>
<text xml:space="preserve" text-anchor="middle" x="29.75" y="-6.5" font-family="Helvetica,sans-Serif" font-size="10.00">sys/stat.h</text>
</a>
</g>
</g>
<!-- Node1&#45;&gt;Node2 -->
<g id="edge1_Node000001_Node000002" class="edge">
<title>Node1&#45;&gt;Node2</title>
<g id="a_edge1_Node000001_Node000002"><a xlink:title=" ">
<path fill="none" stroke="#63b8ff" d="M203.49,-55.55C161.76,-44.85 107.34,-30.89 70.61,-21.48"/>
<polygon fill="#63b8ff" stroke="#63b8ff" points="71.83,-18.18 61.28,-19.08 70.09,-24.96 71.83,-18.18"/>
</a>
</g>
</g>
<!-- Node3 -->
<g id="Node000003" class="node">
<title>Node3</title>
<g id="a_Node000003"><a xlink:title=" ">
<polygon fill="#e0e0e0" stroke="#999999" points="125.5,-20 78,-20 78,0 125.5,0 125.5,-20"/>
<text xml:space="preserve" text-anchor="middle" x="101.75" y="-6.5" font-family="Helvetica,sans-Serif" font-size="10.00">stdlib.h</text>
</a>
</g>
</g>
<!-- Node1&#45;&gt;Node3 -->
<g id="edge2_Node000001_Node000003" class="edge">
<title>Node1&#45;&gt;Node3</title>
<g id="a_edge2_Node000001_Node000003"><a xlink:title=" ">
<path fill="none" stroke="#63b8ff" d="M222.03,-55.55C195.41,-45.69 161.32,-33.06 136.23,-23.77"/>
<polygon fill="#63b8ff" stroke="#63b8ff" points="137.75,-20.6 127.16,-20.41 135.32,-27.17 137.75,-20.6"/>
</a>
</g>
</g>
<!-- Node4 -->
<g id="Node000004" class="node">
<title>Node4</title>
<g id="a_Node000004"><a xlink:title=" ">
<polygon fill="#e0e0e0" stroke="#999999" points="189.75,-20 143.75,-20 143.75,0 189.75,0 189.75,-20"/>
<text xml:space="preserve" text-anchor="middle" x="166.75" y="-6.5" font-family="Helvetica,sans-Serif" font-size="10.00">errno.h</text>
</a>
</g>
</g>
<!-- Node1&#45;&gt;Node4 -->
<g id="edge3_Node000001_Node000004" class="edge">
<title>Node1&#45;&gt;Node4</title>
<g id="a_edge3_Node000001_Node000004"><a xlink:title=" ">
<path fill="none" stroke="#63b8ff" d="M238.77,-55.55C224.32,-46.61 206.18,-35.39 191.73,-26.45"/>
<polygon fill="#63b8ff" stroke="#63b8ff" points="193.59,-23.49 183.25,-21.2 189.91,-29.44 193.59,-23.49"/>
</a>
</g>
</g>
<!-- Node5 -->
<g id="Node000005" class="node">
<title>Node5</title>
<g id="a_Node000005"><a xlink:title=" ">
<polygon fill="#e0e0e0" stroke="#999999" points="253.38,-20 208.12,-20 208.12,0 253.38,0 253.38,-20"/>
<text xml:space="preserve" text-anchor="middle" x="230.75" y="-6.5" font-family="Helvetica,sans-Serif" font-size="10.00">stdio.h</text>
</a>
</g>
</g>
<!-- Node1&#45;&gt;Node5 -->
<g id="edge4_Node000001_Node000005" class="edge">
<title>Node1&#45;&gt;Node5</title>
<g id="a_edge4_Node000001_Node000005"><a xlink:title=" ">
<path fill="none" stroke="#63b8ff" d="M255.25,-55.55C251.05,-47.91 245.94,-38.61 241.47,-30.49"/>
<polygon fill="#63b8ff" stroke="#63b8ff" points="244.54,-28.81 236.65,-21.73 238.41,-32.18 244.54,-28.81"/>
</a>
</g>
</g>
<!-- Node6 -->
<g id="Node000006" class="node">
<title>Node6</title>
<g id="a_Node000006"><a xlink:title=" ">
<polygon fill="#e0e0e0" stroke="#999999" points="321.62,-20 271.88,-20 271.88,0 321.62,0 321.62,-20"/>
<text xml:space="preserve" text-anchor="middle" x="296.75" y="-6.5" font-family="Helvetica,sans-Serif" font-size="10.00">signal.h</text>
</a>
</g>
</g>
<!-- Node1&#45;&gt;Node6 -->
<g id="edge5_Node000001_Node000006" class="edge">
<title>Node1&#45;&gt;Node6</title>
<g id="a_edge5_Node000001_Node000006"><a xlink:title=" ">
<path fill="none" stroke="#63b8ff" d="M272.25,-55.55C276.45,-47.91 281.56,-38.61 286.03,-30.49"/>
<polygon fill="#63b8ff" stroke="#63b8ff" points="289.09,-32.18 290.85,-21.73 282.96,-28.81 289.09,-32.18"/>
</a>
</g>
</g>
<!-- Node7 -->
<g id="Node000007" class="node">
<title>Node7</title>
<g id="a_Node000007"><a xlink:title=" ">
<polygon fill="#e0e0e0" stroke="#999999" points="382.25,-20 339.25,-20 339.25,0 382.25,0 382.25,-20"/>
<text xml:space="preserve" text-anchor="middle" x="360.75" y="-6.5" font-family="Helvetica,sans-Serif" font-size="10.00">time.h</text>
</a>
</g>
</g>
<!-- Node1&#45;&gt;Node7 -->
<g id="edge6_Node000001_Node000007" class="edge">
<title>Node1&#45;&gt;Node7</title>
<g id="a_edge6_Node000001_Node000007"><a xlink:title=" ">
<path fill="none" stroke="#63b8ff" d="M288.73,-55.55C303.18,-46.61 321.32,-35.39 335.77,-26.45"/>
<polygon fill="#63b8ff" stroke="#63b8ff" points="337.59,-29.44 344.25,-21.2 333.91,-23.49 337.59,-29.44"/>
</a>
</g>
</g>
<!-- Node8 -->
<g id="Node000008" class="node">
<title>Node8</title>
<g id="a_Node000008"><a xlink:title=" ">
<polygon fill="#e0e0e0" stroke="#999999" points="461.62,-20 399.88,-20 399.88,0 461.62,0 461.62,-20"/>
<text xml:space="preserve" text-anchor="middle" x="430.75" y="-6.5" font-family="Helvetica,sans-Serif" font-size="10.00">sys/time.h</text>
</a>
</g>
</g>
<!-- Node1&#45;&gt;Node8 -->
<g id="edge7_Node000001_Node000008" class="edge">
<title>Node1&#45;&gt;Node8</title>
<g id="a_edge7_Node000001_Node000008"><a xlink:title=" ">
<path fill="none" stroke="#63b8ff" d="M306.76,-55.55C333.7,-45.87 368.05,-33.53 393.77,-24.29"/>
<polygon fill="#63b8ff" stroke="#63b8ff" points="394.91,-27.59 403.14,-20.92 392.55,-21.01 394.91,-27.59"/>
</a>
</g>
</g>
<!-- Node9 -->
<g id="Node000009" class="node">
<title>Node9</title>
<g id="a_Node000009"><a xlink:title=" ">
<polygon fill="#e0e0e0" stroke="#999999" points="546.25,-20 479.25,-20 479.25,0 546.25,0 546.25,-20"/>
<text xml:space="preserve" text-anchor="middle" x="512.75" y="-6.5" font-family="Helvetica,sans-Serif" font-size="10.00">sys/times.h</text>
</a>
</g>
</g>
<!-- Node1&#45;&gt;Node9 -->
<g id="edge8_Node000001_Node000009" class="edge">
<title>Node1&#45;&gt;Node9</title>
<g id="a_edge8_Node000001_Node000009"><a xlink:title=" ">
<path fill="none" stroke="#63b8ff" d="M325.3,-56.17C369.57,-45.5 428.24,-31.36 468.07,-21.77"/>
<polygon fill="#63b8ff" stroke="#63b8ff" points="468.66,-25.22 477.56,-19.48 467.02,-18.42 468.66,-25.22"/>
</a>
</g>
</g>
</g>
</svg>
