<?xml version="1.0" encoding="UTF-8" standalone="no"?>
<!DOCTYPE svg PUBLIC "-//W3C//DTD SVG 1.1//EN"
 "http://www.w3.org/Graphics/SVG/1.1/DTD/svg11.dtd">
<!-- Generated by graphviz version 14.1.2 (20260124.0452)
 -->
<!-- Title: SPI Driver Pages: 1 -->
<svg width="397pt" height="344pt"
 viewBox="0.00 0.00 397.00 344.00" xmlns="http://www.w3.org/2000/svg" xmlns:xlink="http://www.w3.org/1999/xlink">

<svg id="main" version="1.1" xmlns="http://www.w3.org/2000/svg" xmlns:xlink="http://www.w3.org/1999/xlink" xml:space="preserve">

<style type="text/css"><![CDATA[
.node, .edge {opacity: 0.7;}
.node.selected, .edge.selected {opacity: 1;}
.edge:hover path { stroke: red; }
.edge:hover polygon { stroke: red; fill: red; }
]]></style>
<script type="application/ecmascript" xlink:href="svg.min.js"/>
<svg id="graph" class="graph">
<g id="graph0" class="graph" transform="scale(1 1) rotate(0) translate(4 340)">
<title>SPI Driver</title>
<!-- Node3 -->
<g id="Node000003" class="node">
<title>Node3</title>
<g id="a_Node000003"><a xlink:href="group___s_p_i___app___states.html" target="_top" xlink:title=" ">
<polygon fill="white" stroke="#666666" points="375,-336 260.75,-336 260.75,-316 375,-316 375,-336"/>
<text xml:space="preserve" text-anchor="middle" x="317.88" y="-322.5" font-family="Helvetica,sans-Serif" font-size="10.00">SPI Application States</text>
</a>
</g>
</g>
<!-- Node6 -->
<g id="Node000006" class="node">
<title>Node6</title>
<g id="a_Node000006"><a xlink:href="group___s_p_i___bus_config.html" target="_top" xlink:title=" ">
<polygon fill="white" stroke="#666666" points="377.25,-298 258.5,-298 258.5,-278 377.25,-278 377.25,-298"/>
<text xml:space="preserve" text-anchor="middle" x="317.88" y="-284.5" font-family="Helvetica,sans-Serif" font-size="10.00">SPI Bus Configurations</text>
</a>
</g>
</g>
<!-- Node10 -->
<g id="Node000010" class="node">
<title>Node10</title>
<g id="a_Node000010"><a xlink:href="group___s_p_i___c_p_h_a.html" target="_top" xlink:title=" ">
<polygon fill="white" stroke="#666666" points="363.75,-260 272,-260 272,-240 363.75,-240 363.75,-260"/>
<text xml:space="preserve" text-anchor="middle" x="317.88" y="-246.5" font-family="Helvetica,sans-Serif" font-size="10.00">SPI Clock Phase</text>
</a>
</g>
</g>
<!-- Node9 -->
<g id="Node000009" class="node">
<title>Node9</title>
<g id="a_Node000009"><a xlink:href="group___s_p_i___c_p_o_l.html" target="_top" xlink:title=" ">
<polygon fill="white" stroke="#666666" points="366.38,-222 269.38,-222 269.38,-202 366.38,-202 366.38,-222"/>
<text xml:space="preserve" text-anchor="middle" x="317.88" y="-208.5" font-family="Helvetica,sans-Serif" font-size="10.00">SPI Clock Polarity</text>
</a>
</g>
</g>
<!-- Node8 -->
<g id="Node000008" class="node">
<title>Node8</title>
<g id="a_Node000008"><a xlink:href="group___s_p_i___d_f_f.html" target="_top" xlink:title=" ">
<polygon fill="white" stroke="#666666" points="381,-184 254.75,-184 254.75,-164 381,-164 381,-184"/>
<text xml:space="preserve" text-anchor="middle" x="317.88" y="-170.5" font-family="Helvetica,sans-Serif" font-size="10.00">SPI Data Frame Formats</text>
</a>
</g>
</g>
<!-- Node5 -->
<g id="Node000005" class="node">
<title>Node5</title>
<g id="a_Node000005"><a xlink:href="group___s_p_i___device_mode.html" target="_top" xlink:title=" ">
<polygon fill="white" stroke="#666666" points="367.12,-146 268.62,-146 268.62,-126 367.12,-126 367.12,-146"/>
<text xml:space="preserve" text-anchor="middle" x="317.88" y="-132.5" font-family="Helvetica,sans-Serif" font-size="10.00">SPI Device Modes</text>
</a>
</g>
</g>
<!-- Node1 -->
<g id="Node000001" class="node">
<title>Node1</title>
<g id="a_Node000001"><a xlink:title="SPI Peripheral Driver Configuration and APIs.">
<polygon fill="#999999" stroke="#666666" points="211.25,-184 149.5,-184 149.5,-164 211.25,-164 211.25,-184"/>
<text xml:space="preserve" text-anchor="middle" x="180.38" y="-170.5" font-family="Helvetica,sans-Serif" font-size="10.00">SPI Driver</text>
</a>
</g>
</g>
<!-- Node1&#45;&gt;Node3 -->
<g id="edge2" class="edge">
<title>Node1&#45;&gt;Node3</title>
<path fill="none" stroke="black" d="M186.18,-195.59C193.9,-225.16 211.91,-277.91 247.25,-307 251.41,-310.42 256.14,-313.23 261.12,-315.54"/>
<polygon fill="black" stroke="black" points="189.6,-194.83 183.84,-185.94 182.8,-196.48 189.6,-194.83"/>
</g>
<!-- Node1&#45;&gt;Node6 -->
<g id="edge5" class="edge">
<title>Node1&#45;&gt;Node6</title>
<path fill="none" stroke="black" d="M190.45,-194.79C200.99,-216.52 220.44,-250.04 247.25,-269 252.16,-272.47 257.68,-275.31 263.4,-277.63"/>
<polygon fill="black" stroke="black" points="193.64,-193.35 186.27,-185.74 187.28,-196.29 193.64,-193.35"/>
</g>
<!-- Node1&#45;&gt;Node10 -->
<g id="edge9" class="edge">
<title>Node1&#45;&gt;Node10</title>
<path fill="none" stroke="black" d="M198.25,-192.44C210.68,-204.98 228.6,-221.06 247.25,-231 254.77,-235.01 263.2,-238.23 271.54,-240.8"/>
<polygon fill="black" stroke="black" points="201.08,-190.32 191.63,-185.52 196.02,-195.17 201.08,-190.32"/>
</g>
<!-- Node1&#45;&gt;Node9 -->
<g id="edge8" class="edge">
<title>Node1&#45;&gt;Node9</title>
<path fill="none" stroke="black" d="M222.42,-185.94C230.64,-188.3 239.21,-190.74 247.25,-193 257.26,-195.81 268.1,-198.8 278.18,-201.55"/>
<polygon fill="black" stroke="black" points="223.55,-182.62 212.97,-183.21 221.61,-189.35 223.55,-182.62"/>
</g>
<!-- Node1&#45;&gt;Node8 -->
<g id="edge7" class="edge">
<title>Node1&#45;&gt;Node8</title>
<path fill="none" stroke="black" d="M222.72,-174C232.74,-174 243.66,-174 254.41,-174"/>
<polygon fill="black" stroke="black" points="222.96,-170.5 212.96,-174 222.96,-177.5 222.96,-170.5"/>
</g>
<!-- Node1&#45;&gt;Node5 -->
<g id="edge4" class="edge">
<title>Node1&#45;&gt;Node5</title>
<path fill="none" stroke="black" d="M222.42,-162.06C230.64,-159.7 239.21,-157.26 247.25,-155 257.26,-152.19 268.1,-149.2 278.18,-146.45"/>
<polygon fill="black" stroke="black" points="221.61,-158.65 212.97,-164.79 223.55,-165.38 221.61,-158.65"/>
</g>
<!-- Node4 -->
<g id="Node000004" class="node">
<title>Node4</title>
<g id="a_Node000004"><a xlink:href="group___s_p_i___events.html" target="_top" xlink:title=" ">
<polygon fill="white" stroke="#666666" points="376.12,-108 259.62,-108 259.62,-88 376.12,-88 376.12,-108"/>
<text xml:space="preserve" text-anchor="middle" x="317.88" y="-94.5" font-family="Helvetica,sans-Serif" font-size="10.00">SPI Application Events</text>
</a>
</g>
</g>
<!-- Node1&#45;&gt;Node4 -->
<g id="edge3" class="edge">
<title>Node1&#45;&gt;Node4</title>
<path fill="none" stroke="black" d="M198.25,-155.56C210.68,-143.02 228.6,-126.94 247.25,-117 253.66,-113.58 260.74,-110.74 267.86,-108.38"/>
<polygon fill="black" stroke="black" points="196.02,-152.83 191.63,-162.48 201.08,-157.68 196.02,-152.83"/>
</g>
<!-- Node11 -->
<g id="Node000011" class="node">
<title>Node11</title>
<g id="a_Node000011"><a xlink:href="group___s_p_i___s_s_m.html" target="_top" xlink:title=" ">
<polygon fill="white" stroke="#666666" points="369,-70 266.75,-70 266.75,-38 369,-38 369,-70"/>
<text xml:space="preserve" text-anchor="start" x="274.75" y="-56.5" font-family="Helvetica,sans-Serif" font-size="10.00">SPI Software Slave</text>
<text xml:space="preserve" text-anchor="middle" x="317.88" y="-44.5" font-family="Helvetica,sans-Serif" font-size="10.00"> Management</text>
</a>
</g>
</g>
<!-- Node1&#45;&gt;Node11 -->
<g id="edge10" class="edge">
<title>Node1&#45;&gt;Node11</title>
<path fill="none" stroke="black" d="M190.91,-153.28C201.75,-131.88 221.34,-98.89 247.25,-79 253.06,-74.54 259.73,-70.83 266.6,-67.75"/>
<polygon fill="black" stroke="black" points="187.81,-151.67 186.6,-162.19 194.11,-154.72 187.81,-151.67"/>
</g>
<!-- Node7 -->
<g id="Node000007" class="node">
<title>Node7</title>
<g id="a_Node000007"><a xlink:href="group___s_p_i___sclk_speed.html" target="_top" xlink:title=" ">
<polygon fill="white" stroke="#666666" points="388.5,-20 247.25,-20 247.25,0 388.5,0 388.5,-20"/>
<text xml:space="preserve" text-anchor="middle" x="317.88" y="-6.5" font-family="Helvetica,sans-Serif" font-size="10.00">SPI Clock Speed Prescalers</text>
</a>
</g>
</g>
<!-- Node1&#45;&gt;Node7 -->
<g id="edge6" class="edge">
<title>Node1&#45;&gt;Node7</title>
<path fill="none" stroke="black" d="M185.12,-152.76C191.83,-121.06 208.97,-61.6 247.25,-29 251.26,-25.59 255.82,-22.78 260.66,-20.48"/>
<polygon fill="black" stroke="black" points="181.73,-151.82 183.26,-162.31 188.61,-153.16 181.73,-151.82"/>
</g>
<!-- Node2 -->
<g id="Node000002" class="node">
<title>Node2</title>
<g id="a_Node000002"><a xlink:href="group___s_t_m32_f411xx___drivers.html" target="_top" xlink:title="Main driver layer for peripherals.">
<polygon fill="white" stroke="#666666" points="113.5,-184 0,-184 0,-164 113.5,-164 113.5,-184"/>
<text xml:space="preserve" text-anchor="middle" x="56.75" y="-170.5" font-family="Helvetica,sans-Serif" font-size="10.00">STM32F411xx Drivers</text>
</a>
</g>
</g>
<!-- Node2&#45;&gt;Node1 -->
<g id="edge1" class="edge">
<title>Node2&#45;&gt;Node1</title>
<path fill="none" stroke="black" d="M125.38,-174C133.75,-174 141.93,-174 149.3,-174"/>
<polygon fill="black" stroke="black" points="125.45,-170.5 115.45,-174 125.45,-177.5 125.45,-170.5"/>
</g>
</g>
</svg>
</svg>

<style type='text/css'>
<![CDATA[
[data-mouse-over-selected='false'] { opacity: 0.7; }
[data-mouse-over-selected='true']  { opacity: 1.0; }
]]>
</style>
<script type="application/ecmascript"><![CDATA[
document.addEventListener('DOMContentLoaded', (event) => {
  highlightEdges();
  highlightAdjacentNodes();
});
]]></script>
</svg>
