<?xml version="1.0" encoding="UTF-8" standalone="no"?>
<!DOCTYPE svg PUBLIC "-//W3C//DTD SVG 1.1//EN"
 "http://www.w3.org/Graphics/SVG/1.1/DTD/svg11.dtd">
<!-- Generated by graphviz version 14.1.2 (20260124.0452)
 -->
<!-- Title: GPIO Driver Pages: 1 -->
<svg width="394pt" height="230pt"
 viewBox="0.00 0.00 394.00 230.00" xmlns="http://www.w3.org/2000/svg" xmlns:xlink="http://www.w3.org/1999/xlink">

<svg id="main" version="1.1" xmlns="http://www.w3.org/2000/svg" xmlns:xlink="http://www.w3.org/1999/xlink" xml:space="preserve">

<style type="text/css"><![CDATA[
.node, .edge {opacity: 0.7;}
.node.selected, .edge.selected {opacity: 1;}
.edge:hover path { stroke: red; }
.edge:hover polygon { stroke: red; fill: red; }
]]></style>
<script type="application/ecmascript" xlink:href="svg.min.js"/>
<svg id="graph" class="graph">
<g id="graph0" class="graph" transform="scale(1 1) rotate(0) translate(4 226)">
<title>GPIO Driver</title>
<!-- Node8 -->
<g id="Node000008" class="node">
<title>Node8</title>
<g id="a_Node000008"><a xlink:href="group___g_p_i_o___a_p_is.html" target="_top" xlink:title=" ">
<polygon fill="white" stroke="#666666" points="353.25,-222 288.5,-222 288.5,-202 353.25,-202 353.25,-222"/>
<text xml:space="preserve" text-anchor="middle" x="320.88" y="-208.5" font-family="Helvetica,sans-Serif" font-size="10.00">GPIO APIs</text>
</a>
</g>
</g>
<!-- Node1 -->
<g id="Node000001" class="node">
<title>Node1</title>
<g id="a_Node000001"><a xlink:title="GPIO Peripheral Driver.">
<polygon fill="#999999" stroke="#666666" points="219.5,-127 149.5,-127 149.5,-107 219.5,-107 219.5,-127"/>
<text xml:space="preserve" text-anchor="middle" x="184.5" y="-113.5" font-family="Helvetica,sans-Serif" font-size="10.00">GPIO Driver</text>
</a>
</g>
</g>
<!-- Node1&#45;&gt;Node8 -->
<g id="edge7" class="edge">
<title>Node1&#45;&gt;Node8</title>
<path fill="none" stroke="black" d="M198.65,-136.41C211.31,-153.66 231.95,-178.34 255.5,-193 265.39,-199.16 277.38,-203.4 288.32,-206.29"/>
<polygon fill="black" stroke="black" points="201.67,-134.62 193.04,-128.48 195.96,-138.67 201.67,-134.62"/>
</g>
<!-- Node4 -->
<g id="Node000004" class="node">
<title>Node4</title>
<g id="a_Node000004"><a xlink:href="group___g_p_i_o___p_i_n___m_o_d_e_s.html" target="_top" xlink:title=" ">
<polygon fill="white" stroke="#666666" points="386.25,-184 255.5,-184 255.5,-164 386.25,-164 386.25,-184"/>
<text xml:space="preserve" text-anchor="middle" x="320.88" y="-170.5" font-family="Helvetica,sans-Serif" font-size="10.00">GPIO Pin Possible Modes</text>
</a>
</g>
</g>
<!-- Node1&#45;&gt;Node4 -->
<g id="edge3" class="edge">
<title>Node1&#45;&gt;Node4</title>
<path fill="none" stroke="black" d="M211.85,-133.02C224.7,-140.38 240.58,-148.83 255.5,-155 263.15,-158.16 271.5,-161.03 279.59,-163.53"/>
<polygon fill="black" stroke="black" points="213.97,-130.2 203.57,-128.17 210.44,-136.24 213.97,-130.2"/>
</g>
<!-- Node3 -->
<g id="Node000003" class="node">
<title>Node3</title>
<g id="a_Node000003"><a xlink:href="group___g_p_i_o___p_i_n___n_u_m_b_e_r_s.html" target="_top" xlink:title=" ">
<polygon fill="white" stroke="#666666" points="371.25,-146 270.5,-146 270.5,-126 371.25,-126 371.25,-146"/>
<text xml:space="preserve" text-anchor="middle" x="320.88" y="-132.5" font-family="Helvetica,sans-Serif" font-size="10.00">GPIO Pin Numbers</text>
</a>
</g>
</g>
<!-- Node1&#45;&gt;Node3 -->
<g id="edge2" class="edge">
<title>Node1&#45;&gt;Node3</title>
<path fill="none" stroke="black" d="M230.97,-123.43C243.59,-125.21 257.36,-127.16 270.21,-128.98"/>
<polygon fill="black" stroke="black" points="231.65,-119.99 221.25,-122.06 230.67,-126.92 231.65,-119.99"/>
</g>
<!-- Node5 -->
<g id="Node000005" class="node">
<title>Node5</title>
<g id="a_Node000005"><a xlink:href="group___g_p_i_o___p_i_n___o_u_t_p_u_t___t_y_p_e_s.html" target="_top" xlink:title=" ">
<polygon fill="white" stroke="#666666" points="380.25,-108 261.5,-108 261.5,-88 380.25,-88 380.25,-108"/>
<text xml:space="preserve" text-anchor="middle" x="320.88" y="-94.5" font-family="Helvetica,sans-Serif" font-size="10.00">GPIO Pin Output Types</text>
</a>
</g>
</g>
<!-- Node1&#45;&gt;Node5 -->
<g id="edge4" class="edge">
<title>Node1&#45;&gt;Node5</title>
<path fill="none" stroke="black" d="M231.13,-110.55C240.78,-109.18 251.09,-107.73 261.14,-106.3"/>
<polygon fill="black" stroke="black" points="230.67,-107.08 221.25,-111.94 231.65,-114.01 230.67,-107.08"/>
</g>
<!-- Node7 -->
<g id="Node000007" class="node">
<title>Node7</title>
<g id="a_Node000007"><a xlink:href="group___g_p_i_o___p_i_n___p_u_p_d.html" target="_top" xlink:title=" ">
<polygon fill="white" stroke="#666666" points="377.25,-70 264.5,-70 264.5,-38 377.25,-38 377.25,-70"/>
<text xml:space="preserve" text-anchor="start" x="272.5" y="-56.5" font-family="Helvetica,sans-Serif" font-size="10.00">GPIO Pin Pull&#45;Up/Pull</text>
<text xml:space="preserve" text-anchor="middle" x="320.88" y="-44.5" font-family="Helvetica,sans-Serif" font-size="10.00">&#45;Down Config</text>
</a>
</g>
</g>
<!-- Node1&#45;&gt;Node7 -->
<g id="edge6" class="edge">
<title>Node1&#45;&gt;Node7</title>
<path fill="none" stroke="black" d="M213.26,-100.88C225.95,-93.78 241.29,-85.59 255.5,-79 261.81,-76.08 268.56,-73.19 275.24,-70.49"/>
<polygon fill="black" stroke="black" points="211.6,-97.79 204.62,-105.77 215.05,-103.88 211.6,-97.79"/>
</g>
<!-- Node6 -->
<g id="Node000006" class="node">
<title>Node6</title>
<g id="a_Node000006"><a xlink:href="group___g_p_i_o___p_i_n___s_p_e_e_d.html" target="_top" xlink:title=" ">
<polygon fill="white" stroke="#666666" points="384,-20 257.75,-20 257.75,0 384,0 384,-20"/>
<text xml:space="preserve" text-anchor="middle" x="320.88" y="-6.5" font-family="Helvetica,sans-Serif" font-size="10.00">GPIO Pin Output Speeds</text>
</a>
</g>
</g>
<!-- Node1&#45;&gt;Node6 -->
<g id="edge5" class="edge">
<title>Node1&#45;&gt;Node6</title>
<path fill="none" stroke="black" d="M196.65,-96.64C208.65,-76.58 229.55,-46.49 255.5,-29 260.62,-25.55 266.38,-22.71 272.3,-20.38"/>
<polygon fill="black" stroke="black" points="193.63,-94.87 191.68,-105.29 199.7,-98.36 193.63,-94.87"/>
</g>
<!-- Node2 -->
<g id="Node000002" class="node">
<title>Node2</title>
<g id="a_Node000002"><a xlink:href="group___s_t_m32_f411xx___drivers.html" target="_top" xlink:title="Main driver layer for peripherals.">
<polygon fill="white" stroke="#666666" points="113.5,-127 0,-127 0,-107 113.5,-107 113.5,-127"/>
<text xml:space="preserve" text-anchor="middle" x="56.75" y="-113.5" font-family="Helvetica,sans-Serif" font-size="10.00">STM32F411xx Drivers</text>
</a>
</g>
</g>
<!-- Node2&#45;&gt;Node1 -->
<g id="edge1" class="edge">
<title>Node2&#45;&gt;Node1</title>
<path fill="none" stroke="black" d="M125,-117C133.33,-117 141.55,-117 149.08,-117"/>
<polygon fill="black" stroke="black" points="125.15,-113.5 115.15,-117 125.15,-120.5 125.15,-113.5"/>
</g>
</g>
</svg>
</svg>

<style type='text/css'>
<![CDATA[
[data-mouse-over-selected='false'] { opacity: 0.7; }
[data-mouse-over-selected='true']  { opacity: 1.0; }
]]>
</style>
<script type="application/ecmascript"><![CDATA[
document.addEventListener('DOMContentLoaded', (event) => {
  highlightEdges();
  highlightAdjacentNodes();
});
]]></script>
</svg>
