<?xml version="1.0" encoding="UTF-8" standalone="no"?>
<!DOCTYPE svg PUBLIC "-//W3C//DTD SVG 1.1//EN"
 "http://www.w3.org/Graphics/SVG/1.1/DTD/svg11.dtd">
<!-- Generated by graphviz version 14.1.2 (20260124.0452)
 -->
<!-- Title: SPI Software Slave Management Pages: 1 -->
<svg width="335pt" height="66pt"
 viewBox="0.00 0.00 335.00 66.00" xmlns="http://www.w3.org/2000/svg" xmlns:xlink="http://www.w3.org/1999/xlink">

<svg id="main" version="1.1" xmlns="http://www.w3.org/2000/svg" xmlns:xlink="http://www.w3.org/1999/xlink" xml:space="preserve">

<style type="text/css"><![CDATA[
.node, .edge {opacity: 0.7;}
.node.selected, .edge.selected {opacity: 1;}
.edge:hover path { stroke: red; }
.edge:hover polygon { stroke: red; fill: red; }
]]></style>
<script type="application/ecmascript" xlink:href="svg.min.js"/>
<svg id="graph" class="graph">
<g id="graph0" class="graph" transform="scale(1 1) rotate(0) translate(4 62)">
<title>SPI Software Slave Management</title>
<!-- Node4 -->
<g id="Node000004" class="node">
<title>Node4</title>
<g id="a_Node000004"><a xlink:href="group___s_p_i___a_p_is.html" target="_top" xlink:title=" ">
<polygon fill="white" stroke="#666666" points="309.75,-58 253.25,-58 253.25,-38 309.75,-38 309.75,-58"/>
<text xml:space="preserve" text-anchor="middle" x="281.5" y="-44.5" font-family="Helvetica,sans-Serif" font-size="10.00">SPI APIs</text>
</a>
</g>
</g>
<!-- Node2 -->
<g id="Node000002" class="node">
<title>Node2</title>
<g id="a_Node000002"><a xlink:href="group___s_p_i___driver.html" target="_top" xlink:title="SPI Peripheral Driver Configuration and APIs.">
<polygon fill="white" stroke="#666666" points="61.75,-39 0,-39 0,-19 61.75,-19 61.75,-39"/>
<text xml:space="preserve" text-anchor="middle" x="30.88" y="-25.5" font-family="Helvetica,sans-Serif" font-size="10.00">SPI Driver</text>
</a>
</g>
</g>
<!-- Node1 -->
<g id="Node000001" class="node">
<title>Node1</title>
<g id="a_Node000001"><a xlink:title=" ">
<polygon fill="#999999" stroke="#666666" points="200,-45 97.75,-45 97.75,-13 200,-13 200,-45"/>
<text xml:space="preserve" text-anchor="start" x="105.75" y="-31.5" font-family="Helvetica,sans-Serif" font-size="10.00">SPI Software Slave</text>
<text xml:space="preserve" text-anchor="middle" x="148.88" y="-19.5" font-family="Helvetica,sans-Serif" font-size="10.00"> Management</text>
</a>
</g>
</g>
<!-- Node2&#45;&gt;Node1 -->
<g id="edge1" class="edge">
<title>Node2&#45;&gt;Node1</title>
<path fill="none" stroke="black" d="M73.51,-29C81.33,-29 89.58,-29 97.63,-29"/>
<polygon fill="black" stroke="black" points="73.56,-25.5 63.56,-29 73.56,-32.5 73.56,-25.5"/>
</g>
<!-- Node3 -->
<g id="Node000003" class="node">
<title>Node3</title>
<g id="a_Node000003"><a xlink:href="group___s_p_i___flags.html" target="_top" xlink:title=" ">
<polygon fill="white" stroke="#666666" points="327,-20 236,-20 236,0 327,0 327,-20"/>
<text xml:space="preserve" text-anchor="middle" x="281.5" y="-6.5" font-family="Helvetica,sans-Serif" font-size="10.00">SPI Status Flags</text>
</a>
</g>
</g>
<!-- Node1&#45;&gt;Node4 -->
<g id="edge3" class="edge">
<title>Node1&#45;&gt;Node4</title>
<path fill="none" stroke="black" d="M211.37,-37.95C225.88,-40.05 240.63,-42.2 252.76,-43.97"/>
<polygon fill="black" stroke="black" points="212.28,-34.54 201.88,-36.56 211.27,-41.47 212.28,-34.54"/>
</g>
<!-- Node1&#45;&gt;Node3 -->
<g id="edge2" class="edge">
<title>Node1&#45;&gt;Node3</title>
<path fill="none" stroke="black" d="M211.71,-20.01C219.79,-18.83 227.94,-17.64 235.67,-16.52"/>
<polygon fill="black" stroke="black" points="211.27,-16.53 201.88,-21.44 212.28,-23.46 211.27,-16.53"/>
</g>
</g>
</svg>
</svg>

<style type='text/css'>
<![CDATA[
[data-mouse-over-selected='false'] { opacity: 0.7; }
[data-mouse-over-selected='true']  { opacity: 1.0; }
]]>
</style>
<script type="application/ecmascript"><![CDATA[
document.addEventListener('DOMContentLoaded', (event) => {
  highlightEdges();
  highlightAdjacentNodes();
});
]]></script>
</svg>
