<?xml version="1.0" encoding="UTF-8" standalone="no"?>
<!DOCTYPE svg PUBLIC "-//W3C//DTD SVG 1.1//EN"
 "http://www.w3.org/Graphics/SVG/1.1/DTD/svg11.dtd">
<!-- Generated by graphviz version 14.1.2 (20260124.0452)
 -->
<!-- Title: Components/MFRC522/mfrc522.h Pages: 1 -->
<svg width="576pt" height="152pt"
 viewBox="0.00 0.00 576.00 152.00" xmlns="http://www.w3.org/2000/svg" xmlns:xlink="http://www.w3.org/1999/xlink">
<g id="graph0" class="graph" transform="scale(1 1) rotate(0) translate(4 148)">
<title>Components/MFRC522/mfrc522.h</title>
<!-- Node1 -->
<g id="Node000001" class="node">
<title>Node1</title>
<g id="a_Node000001"><a xlink:title="Driver interface for MFRC522 RFID module (13.56 MHz).">
<polygon fill="#999999" stroke="#666666" points="335.38,-144 215.88,-144 215.88,-112 335.38,-112 335.38,-144"/>
<text xml:space="preserve" text-anchor="start" x="223.88" y="-130.5" font-family="Helvetica,sans-Serif" font-size="10.00">Components/MFRC522</text>
<text xml:space="preserve" text-anchor="middle" x="275.62" y="-118.5" font-family="Helvetica,sans-Serif" font-size="10.00">/mfrc522.h</text>
</a>
</g>
</g>
<!-- Node2 -->
<g id="Node000002" class="node">
<title>Node2</title>
<g id="a_Node000002"><a xlink:href="stm32f411xx_8h.html" target="_top" xlink:title="MCU specific header file for STM32F411xx. Contains peripheral base addresses, register definition str...">
<polygon fill="white" stroke="#666666" points="315.5,-76 235.75,-76 235.75,-56 315.5,-56 315.5,-76"/>
<text xml:space="preserve" text-anchor="middle" x="275.62" y="-62.5" font-family="Helvetica,sans-Serif" font-size="10.00">stm32f411xx.h</text>
</a>
</g>
</g>
<!-- Node1&#45;&gt;Node2 -->
<g id="edge1_Node000001_Node000002" class="edge">
<title>Node1&#45;&gt;Node2</title>
<g id="a_edge1_Node000001_Node000002"><a xlink:title=" ">
<path fill="none" stroke="#63b8ff" d="M275.62,-111.55C275.62,-104.34 275.62,-95.66 275.62,-87.88"/>
<polygon fill="#63b8ff" stroke="#63b8ff" points="279.13,-87.92 275.63,-77.92 272.13,-87.92 279.13,-87.92"/>
</a>
</g>
</g>
<!-- Node3 -->
<g id="Node000003" class="node">
<title>Node3</title>
<g id="a_Node000003"><a xlink:title=" ">
<polygon fill="#e0e0e0" stroke="#999999" points="51.25,-20 0,-20 0,0 51.25,0 51.25,-20"/>
<text xml:space="preserve" text-anchor="middle" x="25.62" y="-6.5" font-family="Helvetica,sans-Serif" font-size="10.00">stddef.h</text>
</a>
</g>
</g>
<!-- Node2&#45;&gt;Node3 -->
<g id="edge2_Node000002_Node000003" class="edge">
<title>Node2&#45;&gt;Node3</title>
<g id="a_edge2_Node000002_Node000003"><a xlink:title=" ">
<path fill="none" stroke="#63b8ff" d="M235.48,-57.16C194.49,-49.04 128.74,-35.66 62.63,-20.38"/>
<polygon fill="#63b8ff" stroke="#63b8ff" points="63.59,-17.02 53.06,-18.16 62.01,-23.83 63.59,-17.02"/>
</a>
</g>
</g>
<!-- Node4 -->
<g id="Node000004" class="node">
<title>Node4</title>
<g id="a_Node000004"><a xlink:title=" ">
<polygon fill="#e0e0e0" stroke="#999999" points="117.75,-20 69.5,-20 69.5,0 117.75,0 117.75,-20"/>
<text xml:space="preserve" text-anchor="middle" x="93.62" y="-6.5" font-family="Helvetica,sans-Serif" font-size="10.00">stdint.h</text>
</a>
</g>
</g>
<!-- Node2&#45;&gt;Node4 -->
<g id="edge3_Node000002_Node000004" class="edge">
<title>Node2&#45;&gt;Node4</title>
<g id="a_edge3_Node000002_Node000004"><a xlink:title=" ">
<path fill="none" stroke="#63b8ff" d="M243.92,-55.59C211.71,-46.04 161.95,-31.27 128.61,-21.38"/>
<polygon fill="#63b8ff" stroke="#63b8ff" points="130.02,-18.15 119.43,-18.66 128.02,-24.86 130.02,-18.15"/>
</a>
</g>
</g>
<!-- Node5 -->
<g id="Node000005" class="node">
<title>Node5</title>
<g id="a_Node000005"><a xlink:href="stm32f411xx__gpio__driver_8h.html" target="_top" xlink:title="Header file for GPIO Peripheral Driver. Defines configuration structures, macros for pin modes,...">
<polygon fill="white" stroke="#666666" points="267.75,-20 135.5,-20 135.5,0 267.75,0 267.75,-20"/>
<text xml:space="preserve" text-anchor="middle" x="201.62" y="-6.5" font-family="Helvetica,sans-Serif" font-size="10.00">stm32f411xx_gpio_driver.h</text>
</a>
</g>
</g>
<!-- Node2&#45;&gt;Node5 -->
<g id="edge4_Node000002_Node000005" class="edge">
<title>Node2&#45;&gt;Node5</title>
<g id="a_edge4_Node000002_Node000005"><a xlink:title=" ">
<path fill="none" stroke="#63b8ff" d="M257.47,-55.59C245.31,-47.85 229.67,-36.69 217.92,-27.47"/>
<polygon fill="#63b8ff" stroke="#63b8ff" points="220.26,-24.86 210.3,-21.25 215.84,-30.28 220.26,-24.86"/>
</a>
</g>
</g>
<!-- Node6 -->
<g id="Node000006" class="node">
<title>Node6</title>
<g id="a_Node000006"><a xlink:href="stm32f411xx__spi__driver_8h.html" target="_top" xlink:title="Header file for SPI Peripheral Driver. Defines configuration structures for SPI communication (Master...">
<polygon fill="white" stroke="#666666" points="413.12,-20 286.12,-20 286.12,0 413.12,0 413.12,-20"/>
<text xml:space="preserve" text-anchor="middle" x="349.62" y="-6.5" font-family="Helvetica,sans-Serif" font-size="10.00">stm32f411xx_spi_driver.h</text>
</a>
</g>
</g>
<!-- Node2&#45;&gt;Node6 -->
<g id="edge6_Node000002_Node000006" class="edge">
<title>Node2&#45;&gt;Node6</title>
<g id="a_edge6_Node000002_Node000006"><a xlink:title=" ">
<path fill="none" stroke="#63b8ff" d="M283.25,-55.59C292.52,-47.67 307.98,-36.16 321.75,-26.82"/>
<polygon fill="#63b8ff" stroke="#63b8ff" points="323.67,-29.74 330.09,-21.31 319.81,-23.9 323.67,-29.74"/>
</a>
</g>
</g>
<!-- Node7 -->
<g id="Node000007" class="node">
<title>Node7</title>
<g id="a_Node000007"><a xlink:href="stm32f411xx__usart__driver_8h.html" target="_top" xlink:title="Header file for USART Peripheral Driver. Contains configuration structures and API prototypes for UAR...">
<polygon fill="white" stroke="#666666" points="567.62,-20 431.62,-20 431.62,0 567.62,0 567.62,-20"/>
<text xml:space="preserve" text-anchor="middle" x="499.62" y="-6.5" font-family="Helvetica,sans-Serif" font-size="10.00">stm32f411xx_usart_driver.h</text>
</a>
</g>
</g>
<!-- Node2&#45;&gt;Node7 -->
<g id="edge8_Node000002_Node000007" class="edge">
<title>Node2&#45;&gt;Node7</title>
<g id="a_edge8_Node000002_Node000007"><a xlink:title=" ">
<path fill="none" stroke="#63b8ff" d="M309.38,-55.59C345.08,-46.55 401.78,-32.84 444.06,-23.02"/>
<polygon fill="#63b8ff" stroke="#63b8ff" points="444.59,-26.48 453.55,-20.82 443.02,-19.66 444.59,-26.48"/>
</a>
</g>
</g>
<!-- Node5&#45;&gt;Node2 -->
<g id="edge5_Node000005_Node000002" class="edge">
<title>Node5&#45;&gt;Node2</title>
<g id="a_edge5_Node000005_Node000002"><a xlink:title=" ">
<path fill="none" stroke="#63b8ff" d="M219.9,-20.48C232.01,-28.2 247.52,-39.28 259.22,-48.45"/>
<polygon fill="#63b8ff" stroke="#63b8ff" points="256.86,-51.04 266.83,-54.64 261.28,-45.61 256.86,-51.04"/>
</a>
</g>
</g>
<!-- Node6&#45;&gt;Node2 -->
<g id="edge7_Node000006_Node000002" class="edge">
<title>Node6&#45;&gt;Node2</title>
<g id="a_edge7_Node000006_Node000002"><a xlink:title=" ">
<path fill="none" stroke="#63b8ff" d="M342.13,-20.3C332.76,-28.32 316.98,-40.06 303.04,-49.5"/>
<polygon fill="#63b8ff" stroke="#63b8ff" points="301.47,-46.34 295.05,-54.76 305.32,-52.19 301.47,-46.34"/>
</a>
</g>
</g>
<!-- Node7&#45;&gt;Node2 -->
<g id="edge9_Node000007_Node000002" class="edge">
<title>Node7&#45;&gt;Node2</title>
<g id="a_edge9_Node000007_Node000002"><a xlink:title=" ">
<path fill="none" stroke="#63b8ff" d="M465.72,-20.45C428.79,-29.8 369.54,-44.1 326.94,-53.97"/>
<polygon fill="#63b8ff" stroke="#63b8ff" points="326.38,-50.51 317.42,-56.16 327.95,-57.33 326.38,-50.51"/>
</a>
</g>
</g>
</g>
</svg>
