<?xml version="1.0" encoding="UTF-8" standalone="no"?>
<!DOCTYPE svg PUBLIC "-//W3C//DTD SVG 1.1//EN"
 "http://www.w3.org/Graphics/SVG/1.1/DTD/svg11.dtd">
<!-- Generated by graphviz version 14.1.2 (20260124.0452)
 -->
<!-- Title: Drivers/Inc/stm32f411xx_spi_driver.h Pages: 1 -->
<svg width="414pt" height="244pt"
 viewBox="0.00 0.00 414.00 244.00" xmlns="http://www.w3.org/2000/svg" xmlns:xlink="http://www.w3.org/1999/xlink">
<g id="graph0" class="graph" transform="scale(1 1) rotate(0) translate(4 240)">
<title>Drivers/Inc/stm32f411xx_spi_driver.h</title>
<!-- Node1 -->
<g id="Node000001" class="node">
<title>Node1</title>
<g id="a_Node000001"><a xlink:title="Header file for SPI Peripheral Driver. Defines configuration structures for SPI communication (Master...">
<polygon fill="#999999" stroke="#666666" points="260,-236 137.5,-236 137.5,-204 260,-204 260,-236"/>
<text xml:space="preserve" text-anchor="start" x="145.5" y="-222.5" font-family="Helvetica,sans-Serif" font-size="10.00">Drivers/Inc/stm32f411xx</text>
<text xml:space="preserve" text-anchor="middle" x="198.75" y="-210.5" font-family="Helvetica,sans-Serif" font-size="10.00">_spi_driver.h</text>
</a>
</g>
</g>
<!-- Node2 -->
<g id="Node000002" class="node">
<title>Node2</title>
<g id="a_Node000002"><a xlink:href="stm32f411xx_8h.html" target="_top" xlink:title="MCU specific header file for STM32F411xx. Contains peripheral base addresses, register definition str...">
<polygon fill="white" stroke="#666666" points="264.12,-162 133.38,-162 133.38,-142 264.12,-142 264.12,-162"/>
<text xml:space="preserve" text-anchor="middle" x="198.75" y="-148.5" font-family="Helvetica,sans-Serif" font-size="10.00">Drivers/Inc/stm32f411xx.h</text>
</a>
</g>
</g>
<!-- Node1&#45;&gt;Node2 -->
<g id="edge1_Node000001_Node000002" class="edge">
<title>Node1&#45;&gt;Node2</title>
<g id="a_edge1_Node000001_Node000002"><a xlink:title=" ">
<path fill="none" stroke="#63b8ff" d="M192.11,-192.31C191.73,-181.67 192.32,-170.13 193.88,-162.32"/>
<polygon fill="#63b8ff" stroke="#63b8ff" points="188.61,-192.47 192.84,-202.18 195.59,-191.95 188.61,-192.47"/>
</a>
</g>
</g>
<!-- Node8 -->
<g id="Node000008" class="node">
<title>Node8</title>
<g id="a_Node000008"><a xlink:href="stm32f411xx__spi__driver_8c.html" target="_top" xlink:title="Implementation of SPI Peripheral Driver. Supports both Blocking and Non&#45;Blocking APIs for data transm...">
<polygon fill="white" stroke="#666666" points="405.75,-168 281.75,-168 281.75,-136 405.75,-136 405.75,-168"/>
<text xml:space="preserve" text-anchor="start" x="289.75" y="-154.5" font-family="Helvetica,sans-Serif" font-size="10.00">Drivers/Src/stm32f411xx</text>
<text xml:space="preserve" text-anchor="middle" x="343.75" y="-142.5" font-family="Helvetica,sans-Serif" font-size="10.00">_spi_driver.c</text>
</a>
</g>
</g>
<!-- Node1&#45;&gt;Node8 -->
<g id="edge10_Node000001_Node000008" class="edge">
<title>Node1&#45;&gt;Node8</title>
<g id="a_edge10_Node000001_Node000008"><a xlink:title=" ">
<path fill="none" stroke="#63b8ff" d="M243.22,-198.76C264.62,-189.02 289.87,-177.52 309.72,-168.49"/>
<polygon fill="#63b8ff" stroke="#63b8ff" points="241.78,-195.57 234.12,-202.9 244.68,-201.94 241.78,-195.57"/>
</a>
</g>
</g>
<!-- Node2&#45;&gt;Node1 -->
<g id="edge7_Node000002_Node000001" class="edge">
<title>Node2&#45;&gt;Node1</title>
<g id="a_edge7_Node000002_Node000001"><a xlink:title=" ">
<path fill="none" stroke="#63b8ff" d="M205.05,-173.44C205.79,-183.21 205.62,-194.7 204.55,-203.69"/>
<polygon fill="#63b8ff" stroke="#63b8ff" points="208.55,-173.29 203.81,-163.82 201.61,-174.18 208.55,-173.29"/>
</a>
</g>
</g>
<!-- Node3 -->
<g id="Node000003" class="node">
<title>Node3</title>
<g id="a_Node000003"><a xlink:href="mfrc522_8h.html" target="_top" xlink:title="Driver interface for MFRC522 RFID module (13.56 MHz).">
<polygon fill="white" stroke="#666666" points="119.5,-100 0,-100 0,-68 119.5,-68 119.5,-100"/>
<text xml:space="preserve" text-anchor="start" x="8" y="-86.5" font-family="Helvetica,sans-Serif" font-size="10.00">Components/MFRC522</text>
<text xml:space="preserve" text-anchor="middle" x="59.75" y="-74.5" font-family="Helvetica,sans-Serif" font-size="10.00">/mfrc522.h</text>
</a>
</g>
</g>
<!-- Node2&#45;&gt;Node3 -->
<g id="edge2_Node000002_Node000003" class="edge">
<title>Node2&#45;&gt;Node3</title>
<g id="a_edge2_Node000002_Node000003"><a xlink:title=" ">
<path fill="none" stroke="#63b8ff" d="M168.51,-136.64C145.99,-125.95 115.28,-111.37 92.24,-100.43"/>
<polygon fill="#63b8ff" stroke="#63b8ff" points="166.93,-139.77 177.47,-140.89 169.94,-133.44 166.93,-139.77"/>
</a>
</g>
</g>
<!-- Node5 -->
<g id="Node000005" class="node">
<title>Node5</title>
<g id="a_Node000005"><a xlink:href="stm32f411xx__gpio__driver_8h.html" target="_top" xlink:title="Header file for GPIO Peripheral Driver. Defines configuration structures, macros for pin modes,...">
<polygon fill="white" stroke="#666666" points="260,-100 137.5,-100 137.5,-68 260,-68 260,-100"/>
<text xml:space="preserve" text-anchor="start" x="145.5" y="-86.5" font-family="Helvetica,sans-Serif" font-size="10.00">Drivers/Inc/stm32f411xx</text>
<text xml:space="preserve" text-anchor="middle" x="198.75" y="-74.5" font-family="Helvetica,sans-Serif" font-size="10.00">_gpio_driver.h</text>
</a>
</g>
</g>
<!-- Node2&#45;&gt;Node5 -->
<g id="edge4_Node000002_Node000005" class="edge">
<title>Node2&#45;&gt;Node5</title>
<g id="a_edge4_Node000002_Node000005"><a xlink:title=" ">
<path fill="none" stroke="#63b8ff" d="M192.44,-130.43C191.71,-120.69 191.88,-109.26 192.95,-100.3"/>
<polygon fill="#63b8ff" stroke="#63b8ff" points="188.93,-130.56 193.66,-140.04 195.88,-129.68 188.93,-130.56"/>
</a>
</g>
</g>
<!-- Node7 -->
<g id="Node000007" class="node">
<title>Node7</title>
<g id="a_Node000007"><a xlink:href="stm32f411xx__usart__driver_8h.html" target="_top" xlink:title="Header file for USART Peripheral Driver. Contains configuration structures and API prototypes for UAR...">
<polygon fill="white" stroke="#666666" points="401,-100 278.5,-100 278.5,-68 401,-68 401,-100"/>
<text xml:space="preserve" text-anchor="start" x="286.5" y="-86.5" font-family="Helvetica,sans-Serif" font-size="10.00">Drivers/Inc/stm32f411xx</text>
<text xml:space="preserve" text-anchor="middle" x="339.75" y="-74.5" font-family="Helvetica,sans-Serif" font-size="10.00">_usart_driver.h</text>
</a>
</g>
</g>
<!-- Node2&#45;&gt;Node7 -->
<g id="edge8_Node000002_Node000007" class="edge">
<title>Node2&#45;&gt;Node7</title>
<g id="a_edge8_Node000002_Node000007"><a xlink:title=" ">
<path fill="none" stroke="#63b8ff" d="M224.04,-136.49C245.5,-125.81 276.43,-111.32 300.98,-100.43"/>
<polygon fill="#63b8ff" stroke="#63b8ff" points="222.75,-133.22 215.4,-140.86 225.91,-139.47 222.75,-133.22"/>
</a>
</g>
</g>
<!-- Node4 -->
<g id="Node000004" class="node">
<title>Node4</title>
<g id="a_Node000004"><a xlink:href="mfrc522_8c.html" target="_top" xlink:title="Implementation of MFRC522 RFID module driver.">
<polygon fill="white" stroke="#666666" points="119.5,-32 0,-32 0,0 119.5,0 119.5,-32"/>
<text xml:space="preserve" text-anchor="start" x="8" y="-18.5" font-family="Helvetica,sans-Serif" font-size="10.00">Components/MFRC522</text>
<text xml:space="preserve" text-anchor="middle" x="59.75" y="-6.5" font-family="Helvetica,sans-Serif" font-size="10.00">/mfrc522.c</text>
</a>
</g>
</g>
<!-- Node3&#45;&gt;Node4 -->
<g id="edge3_Node000003_Node000004" class="edge">
<title>Node3&#45;&gt;Node4</title>
<g id="a_edge3_Node000003_Node000004"><a xlink:title=" ">
<path fill="none" stroke="#63b8ff" d="M59.75,-56.31C59.75,-48.12 59.75,-39.38 59.75,-32.22"/>
<polygon fill="#63b8ff" stroke="#63b8ff" points="56.25,-56.18 59.75,-66.18 63.25,-56.18 56.25,-56.18"/>
</a>
</g>
</g>
<!-- Node5&#45;&gt;Node2 -->
<g id="edge5_Node000005_Node000002" class="edge">
<title>Node5&#45;&gt;Node2</title>
<g id="a_edge5_Node000005_Node000002"><a xlink:title=" ">
<path fill="none" stroke="#63b8ff" d="M205.39,-111.63C205.77,-122.22 205.19,-133.72 203.65,-141.54"/>
<polygon fill="#63b8ff" stroke="#63b8ff" points="208.89,-111.53 204.66,-101.81 201.91,-112.04 208.89,-111.53"/>
</a>
</g>
</g>
<!-- Node6 -->
<g id="Node000006" class="node">
<title>Node6</title>
<g id="a_Node000006"><a xlink:href="stm32f411xx__gpio__driver_8c.html" target="_top" xlink:title="Implementation of GPIO Peripheral Driver. Provides functions for GPIO initialization,...">
<polygon fill="white" stroke="#666666" points="261.75,-32 137.75,-32 137.75,0 261.75,0 261.75,-32"/>
<text xml:space="preserve" text-anchor="start" x="145.75" y="-18.5" font-family="Helvetica,sans-Serif" font-size="10.00">Drivers/Src/stm32f411xx</text>
<text xml:space="preserve" text-anchor="middle" x="199.75" y="-6.5" font-family="Helvetica,sans-Serif" font-size="10.00">_gpio_driver.c</text>
</a>
</g>
</g>
<!-- Node5&#45;&gt;Node6 -->
<g id="edge6_Node000005_Node000006" class="edge">
<title>Node5&#45;&gt;Node6</title>
<g id="a_edge6_Node000005_Node000006"><a xlink:title=" ">
<path fill="none" stroke="#63b8ff" d="M199.15,-56.31C199.28,-48.12 199.41,-39.38 199.52,-32.22"/>
<polygon fill="#63b8ff" stroke="#63b8ff" points="195.66,-56.13 199,-66.18 202.66,-56.23 195.66,-56.13"/>
</a>
</g>
</g>
<!-- Node7&#45;&gt;Node2 -->
<g id="edge9_Node000007_Node000002" class="edge">
<title>Node7&#45;&gt;Node2</title>
<g id="a_edge9_Node000007_Node000002"><a xlink:title=" ">
<path fill="none" stroke="#63b8ff" d="M302.44,-105.41C277.6,-117.46 245.75,-132.16 223.85,-141.54"/>
<polygon fill="#63b8ff" stroke="#63b8ff" points="303.81,-108.64 311.25,-101.09 300.73,-102.35 303.81,-108.64"/>
</a>
</g>
</g>
</g>
</svg>
