<?xml version="1.0" encoding="UTF-8" standalone="no"?>
<!DOCTYPE svg PUBLIC "-//W3C//DTD SVG 1.1//EN"
 "http://www.w3.org/Graphics/SVG/1.1/DTD/svg11.dtd">
<!-- Generated by graphviz version 14.1.2 (20260124.0452)
 -->
<!-- Title: MFRC522_Config_t Pages: 1 -->
<!--zoomable 544 -->

<svg id="main" version="1.1" xmlns="http://www.w3.org/2000/svg" xmlns:xlink="http://www.w3.org/1999/xlink" xml:space="preserve" onload="init(evt)">

<style type="text/css"><![CDATA[
.node, .edge {opacity: 0.7;}
.node.selected, .edge.selected {opacity: 1;}
.edge:hover path { stroke: red; }
.edge:hover polygon { stroke: red; fill: red; }
]]></style>

<defs>
  <circle id="rim" cx="0" cy="0" r="7"/>
  <circle id="rim2" cx="0" cy="0" r="3.5"/>
  <g id="zoomPlus">
    <use xlink:href="#rim" fill="#404040"><set attributeName="fill" to="#808080" begin="zoomplus.mouseover" end="zoomplus.mouseout"/></use>
    <path d="M-4,0h8M0,-4v8" fill="none" stroke="white" stroke-width="1.5" pointer-events="none"/>
  </g>
  <g id="zoomMin">
    <use xlink:href="#rim" fill="#404040"><set attributeName="fill" to="#808080" begin="zoomminus.mouseover" end="zoomminus.mouseout"/></use>
    <path d="M-4,0h8" fill="none" stroke="white" stroke-width="1.5" pointer-events="none"/>
  </g>
  <g id="arrowUp" transform="translate(30 24)">
    <use xlink:href="#rim"/>
    <path pointer-events="none" fill="none" stroke="white" stroke-width="1.5" d="M0,-3.0v7 M-2.5,-0.5L0,-3.0L2.5,-0.5"/>
  </g>
  <g id="arrowRight" transform="rotate(90) translate(36 -43)">
    <use xlink:href="#rim"/>
    <path pointer-events="none" fill="none" stroke="white" stroke-width="1.5" d="M0,-3.0v7 M-2.5,-0.5L0,-3.0L2.5,-0.5"/>
  </g>
  <g id="arrowDown" transform="rotate(180) translate(-30 -48)">
    <use xlink:href="#rim"/>
    <path pointer-events="none" fill="none" stroke="white" stroke-width="1.5" d="M0,-3.0v7 M-2.5,-0.5L0,-3.0L2.5,-0.5"/>
  </g>
  <g id="arrowLeft" transform="rotate(270) translate(-36 17)">
    <use xlink:href="#rim"/>
    <path pointer-events="none" fill="none" stroke="white" stroke-width="1.5" d="M0,-3.0v7 M-2.5,-0.5L0,-3.0L2.5,-0.5"/>
  </g>
  <g id="resetDef">
    <use xlink:href="#rim2" fill="#404040"><set attributeName="fill" to="#808080" begin="reset.mouseover" end="reset.mouseout"/></use>
  </g>
</defs>
<script type="application/ecmascript">
var viewWidth = 235;
var viewHeight = 544;
var sectionId = 'dynsection-0';
</script>
<script type="application/ecmascript" xlink:href="svg.min.js"/>
<svg id="graph" class="graph">
<g id="viewport">
<title>MFRC522_Config_t</title>
<!-- Node1 -->
<g id="Node000001" class="node">
<title>Node1</title>
<g id="a_Node000001"><a xlink:title="Configuration structure for the MFRC522 RFID module.">
<polygon fill="#999999" stroke="none" points="188.5,-52 93.5,-52 93.5,0 188.5,0 188.5,-52"/>
<text xml:space="preserve" text-anchor="start" x="97.5" y="-38.5" font-family="Helvetica,sans-Serif" font-size="10.00">MFRC522_Config_t</text>
<text xml:space="preserve" text-anchor="start" x="109.25" y="-22.5" font-family="Helvetica,sans-Serif" font-size="10.00">+</text>
<text xml:space="preserve" text-anchor="start" x="131" y="-22.5" font-family="Helvetica,sans-Serif" font-size="10.00">RstPin</text>
<text xml:space="preserve" text-anchor="start" x="139.5" y="-6.5" font-family="Helvetica,sans-Serif" font-size="10.00"> </text>
<polygon fill="#666666" stroke="#666666" points="93.5,-34 93.5,-34 188.5,-34 188.5,-34 93.5,-34"/>
<polygon fill="#666666" stroke="#666666" points="93.5,-18 93.5,-18 129,-18 129,-18 93.5,-18"/>
<polygon fill="#666666" stroke="#666666" points="129,-18 129,-18 188.5,-18 188.5,-18 129,-18"/>
<polygon fill="none" stroke="#666666" points="93.5,0 93.5,-52 188.5,-52 188.5,0 93.5,0"/>
</a>
</g>
</g>
<!-- Node2 -->
<g id="Node000002" class="node">
<title>Node2</title>
<g id="a_Node000002"><a xlink:href="struct_s_p_i___handle__t.html" target="_top" xlink:title="Handle structure for SPI peripheral.">
<polygon fill="white" stroke="none" points="129.38,-270 60.62,-270 60.62,-138 129.38,-138 129.38,-270"/>
<text xml:space="preserve" text-anchor="start" x="64.62" y="-256.5" font-family="Helvetica,sans-Serif" font-size="10.00">SPI_Handle_t</text>
<text xml:space="preserve" text-anchor="start" x="66.44" y="-240.5" font-family="Helvetica,sans-Serif" font-size="10.00">+</text>
<text xml:space="preserve" text-anchor="start" x="78.25" y="-240.5" font-family="Helvetica,sans-Serif" font-size="10.00">pTxBuffer</text>
<text xml:space="preserve" text-anchor="start" x="66.44" y="-224.5" font-family="Helvetica,sans-Serif" font-size="10.00">+</text>
<text xml:space="preserve" text-anchor="start" x="78.25" y="-224.5" font-family="Helvetica,sans-Serif" font-size="10.00">pRxBuffer</text>
<text xml:space="preserve" text-anchor="start" x="66.44" y="-208.5" font-family="Helvetica,sans-Serif" font-size="10.00">+</text>
<text xml:space="preserve" text-anchor="start" x="78.25" y="-208.5" font-family="Helvetica,sans-Serif" font-size="10.00">TxLen</text>
<text xml:space="preserve" text-anchor="start" x="66.44" y="-192.5" font-family="Helvetica,sans-Serif" font-size="10.00">+</text>
<text xml:space="preserve" text-anchor="start" x="78.25" y="-192.5" font-family="Helvetica,sans-Serif" font-size="10.00">RxLen</text>
<text xml:space="preserve" text-anchor="start" x="66.44" y="-176.5" font-family="Helvetica,sans-Serif" font-size="10.00">+</text>
<text xml:space="preserve" text-anchor="start" x="78.25" y="-176.5" font-family="Helvetica,sans-Serif" font-size="10.00">TxState</text>
<text xml:space="preserve" text-anchor="start" x="66.44" y="-160.5" font-family="Helvetica,sans-Serif" font-size="10.00">+</text>
<text xml:space="preserve" text-anchor="start" x="78.25" y="-160.5" font-family="Helvetica,sans-Serif" font-size="10.00">RxState</text>
<text xml:space="preserve" text-anchor="start" x="93.5" y="-144.5" font-family="Helvetica,sans-Serif" font-size="10.00"> </text>
<polygon fill="#666666" stroke="#666666" points="60.62,-252 60.62,-252 129.38,-252 129.38,-252 60.62,-252"/>
<polygon fill="#666666" stroke="#666666" points="60.62,-156 60.62,-156 76.25,-156 76.25,-156 60.62,-156"/>
<polygon fill="#666666" stroke="#666666" points="76.25,-156 76.25,-156 129.38,-156 129.38,-156 76.25,-156"/>
<polygon fill="none" stroke="#666666" points="60.62,-138 60.62,-270 129.38,-270 129.38,-138 60.62,-138"/>
</a>
</g>
</g>
<!-- Node2&#45;&gt;Node1 -->
<g id="edge1_Node000001_Node000002" class="edge">
<title>Node2&#45;&gt;Node1</title>
<g id="a_edge1_Node000001_Node000002"><a xlink:title=" ">
<path fill="none" stroke="#63b8ff" d="M111.87,-138.46C118.41,-113.44 125.66,-85.69 131.29,-64.13"/>
<polygon fill="none" stroke="#63b8ff" points="131.31,-64.08 128.96,-57.26 134.34,-52.47 136.7,-59.28 131.31,-64.08"/>
</a>
</g>
<text xml:space="preserve" text-anchor="start" x="131.66" y="-75.5" font-family="Helvetica,sans-Serif" font-size="10.00" fill="grey">+pSPI</text>
</g>
<!-- Node3 -->
<g id="Node000003" class="node">
<title>Node3</title>
<g id="a_Node000003"><a xlink:href="struct_s_p_i___reg_def__t.html" target="_top" xlink:title="Peripheral register definition structure for SPI.">
<polygon fill="white" stroke="none" points="84,-536 0,-536 0,-356 84,-356 84,-536"/>
<text xml:space="preserve" text-anchor="start" x="10.12" y="-522.5" font-family="Helvetica,sans-Serif" font-size="10.00">SPI_RegDef_t</text>
<text xml:space="preserve" text-anchor="start" x="4" y="-506.5" font-family="Helvetica,sans-Serif" font-size="10.00">+</text>
<text xml:space="preserve" text-anchor="start" x="14" y="-506.5" font-family="Helvetica,sans-Serif" font-size="10.00">SPI_CR1</text>
<text xml:space="preserve" text-anchor="start" x="4" y="-490.5" font-family="Helvetica,sans-Serif" font-size="10.00">+</text>
<text xml:space="preserve" text-anchor="start" x="14" y="-490.5" font-family="Helvetica,sans-Serif" font-size="10.00">SPI_CR2</text>
<text xml:space="preserve" text-anchor="start" x="4" y="-474.5" font-family="Helvetica,sans-Serif" font-size="10.00">+</text>
<text xml:space="preserve" text-anchor="start" x="14" y="-474.5" font-family="Helvetica,sans-Serif" font-size="10.00">SPI_SR</text>
<text xml:space="preserve" text-anchor="start" x="4" y="-458.5" font-family="Helvetica,sans-Serif" font-size="10.00">+</text>
<text xml:space="preserve" text-anchor="start" x="14" y="-458.5" font-family="Helvetica,sans-Serif" font-size="10.00">SPI_DR</text>
<text xml:space="preserve" text-anchor="start" x="4" y="-442.5" font-family="Helvetica,sans-Serif" font-size="10.00">+</text>
<text xml:space="preserve" text-anchor="start" x="14" y="-442.5" font-family="Helvetica,sans-Serif" font-size="10.00">SPI_CRCPR</text>
<text xml:space="preserve" text-anchor="start" x="4" y="-426.5" font-family="Helvetica,sans-Serif" font-size="10.00">+</text>
<text xml:space="preserve" text-anchor="start" x="14" y="-426.5" font-family="Helvetica,sans-Serif" font-size="10.00">SPI_RXCRCR</text>
<text xml:space="preserve" text-anchor="start" x="4" y="-410.5" font-family="Helvetica,sans-Serif" font-size="10.00">+</text>
<text xml:space="preserve" text-anchor="start" x="14" y="-410.5" font-family="Helvetica,sans-Serif" font-size="10.00">SPI_TXCRCR</text>
<text xml:space="preserve" text-anchor="start" x="4" y="-394.5" font-family="Helvetica,sans-Serif" font-size="10.00">+</text>
<text xml:space="preserve" text-anchor="start" x="14" y="-394.5" font-family="Helvetica,sans-Serif" font-size="10.00">SPI_I2SCFGR</text>
<text xml:space="preserve" text-anchor="start" x="4" y="-378.5" font-family="Helvetica,sans-Serif" font-size="10.00">+</text>
<text xml:space="preserve" text-anchor="start" x="14" y="-378.5" font-family="Helvetica,sans-Serif" font-size="10.00">SPI_I2SPR</text>
<text xml:space="preserve" text-anchor="start" x="40.5" y="-362.5" font-family="Helvetica,sans-Serif" font-size="10.00"> </text>
<polygon fill="#666666" stroke="#666666" points="0,-518 0,-518 84,-518 84,-518 0,-518"/>
<polygon fill="#666666" stroke="#666666" points="0,-374 0,-374 12,-374 12,-374 0,-374"/>
<polygon fill="#666666" stroke="#666666" points="12,-374 12,-374 84,-374 84,-374 12,-374"/>
<polygon fill="none" stroke="#666666" points="0,-356 0,-536 84,-536 84,-356 0,-356"/>
</a>
</g>
</g>
<!-- Node3&#45;&gt;Node2 -->
<g id="edge2_Node000002_Node000003" class="edge">
<title>Node3&#45;&gt;Node2</title>
<g id="a_edge2_Node000002_Node000003"><a xlink:title=" ">
<path fill="none" stroke="#63b8ff" d="M61.58,-356.31C66.96,-331.98 72.74,-305.8 77.96,-282.17"/>
<polygon fill="none" stroke="#63b8ff" points="77.93,-282.29 75.32,-275.57 80.52,-270.58 83.13,-277.3 77.93,-282.29"/>
</a>
</g>
<text xml:space="preserve" text-anchor="start" x="71.5" y="-325.5" font-family="Helvetica,sans-Serif" font-size="10.00" fill="grey">+pSPIx</text>
</g>
<!-- Node4 -->
<g id="Node000004" class="node">
<title>Node4</title>
<g id="a_Node000004"><a xlink:href="struct_s_p_i___config__t.html" target="_top" xlink:title="Configuration structure for SPIx peripheral.">
<polygon fill="white" stroke="none" points="196.25,-520 101.75,-520 101.75,-372 196.25,-372 196.25,-520"/>
<text xml:space="preserve" text-anchor="start" x="119.75" y="-506.5" font-family="Helvetica,sans-Serif" font-size="10.00">SPI_Config_t</text>
<text xml:space="preserve" text-anchor="start" x="105.75" y="-490.5" font-family="Helvetica,sans-Serif" font-size="10.00">+</text>
<text xml:space="preserve" text-anchor="start" x="115.75" y="-490.5" font-family="Helvetica,sans-Serif" font-size="10.00">SPI_DeviceMode</text>
<text xml:space="preserve" text-anchor="start" x="105.75" y="-474.5" font-family="Helvetica,sans-Serif" font-size="10.00">+</text>
<text xml:space="preserve" text-anchor="start" x="115.75" y="-474.5" font-family="Helvetica,sans-Serif" font-size="10.00">SPI_BusConfig</text>
<text xml:space="preserve" text-anchor="start" x="105.75" y="-458.5" font-family="Helvetica,sans-Serif" font-size="10.00">+</text>
<text xml:space="preserve" text-anchor="start" x="115.75" y="-458.5" font-family="Helvetica,sans-Serif" font-size="10.00">SPI_SclkSpeed</text>
<text xml:space="preserve" text-anchor="start" x="105.75" y="-442.5" font-family="Helvetica,sans-Serif" font-size="10.00">+</text>
<text xml:space="preserve" text-anchor="start" x="115.75" y="-442.5" font-family="Helvetica,sans-Serif" font-size="10.00">SPI_DFF</text>
<text xml:space="preserve" text-anchor="start" x="105.75" y="-426.5" font-family="Helvetica,sans-Serif" font-size="10.00">+</text>
<text xml:space="preserve" text-anchor="start" x="115.75" y="-426.5" font-family="Helvetica,sans-Serif" font-size="10.00">SPI_CPHA</text>
<text xml:space="preserve" text-anchor="start" x="105.75" y="-410.5" font-family="Helvetica,sans-Serif" font-size="10.00">+</text>
<text xml:space="preserve" text-anchor="start" x="115.75" y="-410.5" font-family="Helvetica,sans-Serif" font-size="10.00">SPI_CPOL</text>
<text xml:space="preserve" text-anchor="start" x="105.75" y="-394.5" font-family="Helvetica,sans-Serif" font-size="10.00">+</text>
<text xml:space="preserve" text-anchor="start" x="115.75" y="-394.5" font-family="Helvetica,sans-Serif" font-size="10.00">SPI_SSM</text>
<text xml:space="preserve" text-anchor="start" x="147.5" y="-378.5" font-family="Helvetica,sans-Serif" font-size="10.00"> </text>
<polygon fill="#666666" stroke="#666666" points="101.75,-502 101.75,-502 196.25,-502 196.25,-502 101.75,-502"/>
<polygon fill="#666666" stroke="#666666" points="101.75,-390 101.75,-390 113.75,-390 113.75,-390 101.75,-390"/>
<polygon fill="#666666" stroke="#666666" points="113.75,-390 113.75,-390 196.25,-390 196.25,-390 113.75,-390"/>
<polygon fill="none" stroke="#666666" points="101.75,-372 101.75,-520 196.25,-520 196.25,-372 101.75,-372"/>
</a>
</g>
</g>
<!-- Node4&#45;&gt;Node2 -->
<g id="edge3_Node000002_Node000004" class="edge">
<title>Node4&#45;&gt;Node2</title>
<g id="a_edge3_Node000002_Node000004"><a xlink:title=" ">
<path fill="none" stroke="#63b8ff" d="M132.58,-372.01C126.2,-343.66 118.88,-311.15 112.41,-282.4"/>
<polygon fill="none" stroke="#63b8ff" points="112.43,-282.49 107.22,-277.51 109.8,-270.78 115.02,-275.76 112.43,-282.49"/>
</a>
</g>
<text xml:space="preserve" text-anchor="start" x="126.62" y="-325.5" font-family="Helvetica,sans-Serif" font-size="10.00" fill="grey">+SPIConfig</text>
</g>
<!-- Node5 -->
<g id="Node000005" class="node">
<title>Node5</title>
<g id="a_Node000005"><a xlink:href="struct_g_p_i_o___reg_def__t.html" target="_top" xlink:title="Peripheral register definition structure for GPIO.">
<polygon fill="white" stroke="none" points="227,-302 147,-302 147,-106 227,-106 227,-302"/>
<text xml:space="preserve" text-anchor="start" x="151" y="-288.5" font-family="Helvetica,sans-Serif" font-size="10.00">GPIO_RegDef_t</text>
<text xml:space="preserve" text-anchor="start" x="154.12" y="-272.5" font-family="Helvetica,sans-Serif" font-size="10.00">+</text>
<text xml:space="preserve" text-anchor="start" x="167.25" y="-272.5" font-family="Helvetica,sans-Serif" font-size="10.00">MODER</text>
<text xml:space="preserve" text-anchor="start" x="154.12" y="-256.5" font-family="Helvetica,sans-Serif" font-size="10.00">+</text>
<text xml:space="preserve" text-anchor="start" x="167.25" y="-256.5" font-family="Helvetica,sans-Serif" font-size="10.00">OTYPER</text>
<text xml:space="preserve" text-anchor="start" x="154.12" y="-240.5" font-family="Helvetica,sans-Serif" font-size="10.00">+</text>
<text xml:space="preserve" text-anchor="start" x="167.25" y="-240.5" font-family="Helvetica,sans-Serif" font-size="10.00">OSPEEDR</text>
<text xml:space="preserve" text-anchor="start" x="154.12" y="-224.5" font-family="Helvetica,sans-Serif" font-size="10.00">+</text>
<text xml:space="preserve" text-anchor="start" x="167.25" y="-224.5" font-family="Helvetica,sans-Serif" font-size="10.00">PUPDR</text>
<text xml:space="preserve" text-anchor="start" x="154.12" y="-208.5" font-family="Helvetica,sans-Serif" font-size="10.00">+</text>
<text xml:space="preserve" text-anchor="start" x="167.25" y="-208.5" font-family="Helvetica,sans-Serif" font-size="10.00">IDR</text>
<text xml:space="preserve" text-anchor="start" x="154.12" y="-192.5" font-family="Helvetica,sans-Serif" font-size="10.00">+</text>
<text xml:space="preserve" text-anchor="start" x="167.25" y="-192.5" font-family="Helvetica,sans-Serif" font-size="10.00">ODR</text>
<text xml:space="preserve" text-anchor="start" x="154.12" y="-176.5" font-family="Helvetica,sans-Serif" font-size="10.00">+</text>
<text xml:space="preserve" text-anchor="start" x="167.25" y="-176.5" font-family="Helvetica,sans-Serif" font-size="10.00">BSRR</text>
<text xml:space="preserve" text-anchor="start" x="154.12" y="-160.5" font-family="Helvetica,sans-Serif" font-size="10.00">+</text>
<text xml:space="preserve" text-anchor="start" x="167.25" y="-160.5" font-family="Helvetica,sans-Serif" font-size="10.00">LCKR</text>
<text xml:space="preserve" text-anchor="start" x="154.12" y="-144.5" font-family="Helvetica,sans-Serif" font-size="10.00">+</text>
<text xml:space="preserve" text-anchor="start" x="167.25" y="-144.5" font-family="Helvetica,sans-Serif" font-size="10.00">AFRL</text>
<text xml:space="preserve" text-anchor="start" x="154.12" y="-128.5" font-family="Helvetica,sans-Serif" font-size="10.00">+</text>
<text xml:space="preserve" text-anchor="start" x="167.25" y="-128.5" font-family="Helvetica,sans-Serif" font-size="10.00">AFRH</text>
<text xml:space="preserve" text-anchor="start" x="185.5" y="-112.5" font-family="Helvetica,sans-Serif" font-size="10.00"> </text>
<polygon fill="#666666" stroke="#666666" points="147,-284 147,-284 227,-284 227,-284 147,-284"/>
<polygon fill="#666666" stroke="#666666" points="147,-124 147,-124 165.25,-124 165.25,-124 147,-124"/>
<polygon fill="#666666" stroke="#666666" points="165.25,-124 165.25,-124 227,-124 227,-124 165.25,-124"/>
<polygon fill="none" stroke="#666666" points="147,-106 147,-302 227,-302 227,-106 147,-106"/>
</a>
</g>
</g>
<!-- Node5&#45;&gt;Node1 -->
<g id="edge4_Node000001_Node000005" class="edge">
<title>Node5&#45;&gt;Node1</title>
<g id="a_edge4_Node000001_Node000005"><a xlink:title=" ">
<path fill="none" stroke="#63b8ff" d="M175.01,-106.12C172.31,-93.8 169.02,-81.49 165,-70 164.23,-67.8 163.35,-65.57 162.39,-63.36"/>
<polygon fill="none" stroke="#63b8ff" points="162.4,-63.37 156.17,-59.74 157.12,-52.59 163.35,-56.23 162.4,-63.37"/>
</a>
</g>
<text xml:space="preserve" text-anchor="start" x="173.42" y="-75.5" font-family="Helvetica,sans-Serif" font-size="10.00" fill="grey">+pRstPort</text>
</g>
</g>
</svg>

<g id="navigator" transform="translate(0 0)" fill="#404254">
  <rect fill="#f2f5e9" fill-opacity="0.5" stroke="#606060" stroke-width=".5" x="0" y="0" width="60" height="60"/>
  <use id="zoomplus" xlink:href="#zoomPlus" x="17" y="9" onmousedown="handleZoom(evt,'in')"/>
  <use id="zoomminus" xlink:href="#zoomMin" x="42" y="9" onmousedown="handleZoom(evt,'out')"/>
  <use id="reset" xlink:href="#resetDef" x="30" y="36" onmousedown="handleReset()"/>
   <use id="arrowup" xlink:href="#arrowUp" x="0" y="0" onmousedown="handlePan(0,-1)"/>
  <use id="arrowright" xlink:href="#arrowRight" x="0" y="0" onmousedown="handlePan(1,0)"/>
  <use id="arrowdown" xlink:href="#arrowDown" x="0" y="0" onmousedown="handlePan(0,1)"/>
  <use id="arrowleft" xlink:href="#arrowLeft" x="0" y="0" onmousedown="handlePan(-1,0)"/>
</g>
<svg viewBox="0 0 15 15" width="100%" height="30px" preserveAspectRatio="xMaxYMin meet">
 <g id="arrow_out" transform="scale(0.3 0.3)">
  <a xlink:href="struct_m_f_r_c522___config__t__coll__graph_org.svg" target="_base">
   <rect id="button" ry="5" rx="5" y="6" x="6" height="38" width="38"
        fill="#f2f5e9" fill-opacity="0.5" stroke="#606060" stroke-width="1.0"/>
   <path id="arrow"
     d="M 11.500037,31.436501 C 11.940474,20.09759 22.043105,11.32322 32.158766,21.979434 L 37.068811,17.246167 C 37.068811,17.246167 37.088388,32 37.088388,32 L 22.160133,31.978069 C 22.160133,31.978069 26.997745,27.140456 26.997745,27.140456 C 18.528582,18.264221 13.291696,25.230495 11.500037,31.436501 z"
     style="fill:#404040;"/>
  </a>
 </g>
</svg>

<style type='text/css'>
<![CDATA[
[data-mouse-over-selected='false'] { opacity: 0.7; }
[data-mouse-over-selected='true']  { opacity: 1.0; }
]]>
</style>
<script type="application/ecmascript"><![CDATA[
document.addEventListener('DOMContentLoaded', (event) => {
  highlightEdges();
  highlightAdjacentNodes();
});
]]></script>
</svg>
