<?xml version="1.0" encoding="UTF-8" standalone="no"?>
<!DOCTYPE svg PUBLIC "-//W3C//DTD SVG 1.1//EN"
 "http://www.w3.org/Graphics/SVG/1.1/DTD/svg11.dtd">
<!-- Generated by graphviz version 14.1.2 (20260124.0452)
 -->
<!-- Title: SPI_Handle_t Pages: 1 -->
<svg width="204pt" height="374pt"
 viewBox="0.00 0.00 204.00 374.00" xmlns="http://www.w3.org/2000/svg" xmlns:xlink="http://www.w3.org/1999/xlink">
<g id="graph0" class="graph" transform="scale(1 1) rotate(0) translate(4 370)">
<title>SPI_Handle_t</title>
<!-- Node1 -->
<g id="Node000001" class="node">
<title>Node1</title>
<g id="a_Node000001"><a xlink:title="Handle structure for SPI peripheral.">
<polygon fill="#999999" stroke="none" points="129.38,-132 60.62,-132 60.62,0 129.38,0 129.38,-132"/>
<text xml:space="preserve" text-anchor="start" x="64.62" y="-118.5" font-family="Helvetica,sans-Serif" font-size="10.00">SPI_Handle_t</text>
<text xml:space="preserve" text-anchor="start" x="66.44" y="-102.5" font-family="Helvetica,sans-Serif" font-size="10.00">+</text>
<text xml:space="preserve" text-anchor="start" x="78.25" y="-102.5" font-family="Helvetica,sans-Serif" font-size="10.00">pTxBuffer</text>
<text xml:space="preserve" text-anchor="start" x="66.44" y="-86.5" font-family="Helvetica,sans-Serif" font-size="10.00">+</text>
<text xml:space="preserve" text-anchor="start" x="78.25" y="-86.5" font-family="Helvetica,sans-Serif" font-size="10.00">pRxBuffer</text>
<text xml:space="preserve" text-anchor="start" x="66.44" y="-70.5" font-family="Helvetica,sans-Serif" font-size="10.00">+</text>
<text xml:space="preserve" text-anchor="start" x="78.25" y="-70.5" font-family="Helvetica,sans-Serif" font-size="10.00">TxLen</text>
<text xml:space="preserve" text-anchor="start" x="66.44" y="-54.5" font-family="Helvetica,sans-Serif" font-size="10.00">+</text>
<text xml:space="preserve" text-anchor="start" x="78.25" y="-54.5" font-family="Helvetica,sans-Serif" font-size="10.00">RxLen</text>
<text xml:space="preserve" text-anchor="start" x="66.44" y="-38.5" font-family="Helvetica,sans-Serif" font-size="10.00">+</text>
<text xml:space="preserve" text-anchor="start" x="78.25" y="-38.5" font-family="Helvetica,sans-Serif" font-size="10.00">TxState</text>
<text xml:space="preserve" text-anchor="start" x="66.44" y="-22.5" font-family="Helvetica,sans-Serif" font-size="10.00">+</text>
<text xml:space="preserve" text-anchor="start" x="78.25" y="-22.5" font-family="Helvetica,sans-Serif" font-size="10.00">RxState</text>
<text xml:space="preserve" text-anchor="start" x="93.5" y="-6.5" font-family="Helvetica,sans-Serif" font-size="10.00"> </text>
<polygon fill="#666666" stroke="#666666" points="60.62,-114 60.62,-114 129.38,-114 129.38,-114 60.62,-114"/>
<polygon fill="#666666" stroke="#666666" points="60.62,-18 60.62,-18 76.25,-18 76.25,-18 60.62,-18"/>
<polygon fill="#666666" stroke="#666666" points="76.25,-18 76.25,-18 129.38,-18 129.38,-18 76.25,-18"/>
<polygon fill="none" stroke="#666666" points="60.62,0 60.62,-132 129.38,-132 129.38,0 60.62,0"/>
</a>
</g>
</g>
<!-- Node2 -->
<g id="Node000002" class="node">
<title>Node2</title>
<g id="a_Node000002"><a xlink:href="struct_s_p_i___reg_def__t.html" target="_top" xlink:title="Peripheral register definition structure for SPI.">
<polygon fill="white" stroke="none" points="84,-366 0,-366 0,-186 84,-186 84,-366"/>
<text xml:space="preserve" text-anchor="start" x="10.12" y="-352.5" font-family="Helvetica,sans-Serif" font-size="10.00">SPI_RegDef_t</text>
<text xml:space="preserve" text-anchor="start" x="4" y="-336.5" font-family="Helvetica,sans-Serif" font-size="10.00">+</text>
<text xml:space="preserve" text-anchor="start" x="14" y="-336.5" font-family="Helvetica,sans-Serif" font-size="10.00">SPI_CR1</text>
<text xml:space="preserve" text-anchor="start" x="4" y="-320.5" font-family="Helvetica,sans-Serif" font-size="10.00">+</text>
<text xml:space="preserve" text-anchor="start" x="14" y="-320.5" font-family="Helvetica,sans-Serif" font-size="10.00">SPI_CR2</text>
<text xml:space="preserve" text-anchor="start" x="4" y="-304.5" font-family="Helvetica,sans-Serif" font-size="10.00">+</text>
<text xml:space="preserve" text-anchor="start" x="14" y="-304.5" font-family="Helvetica,sans-Serif" font-size="10.00">SPI_SR</text>
<text xml:space="preserve" text-anchor="start" x="4" y="-288.5" font-family="Helvetica,sans-Serif" font-size="10.00">+</text>
<text xml:space="preserve" text-anchor="start" x="14" y="-288.5" font-family="Helvetica,sans-Serif" font-size="10.00">SPI_DR</text>
<text xml:space="preserve" text-anchor="start" x="4" y="-272.5" font-family="Helvetica,sans-Serif" font-size="10.00">+</text>
<text xml:space="preserve" text-anchor="start" x="14" y="-272.5" font-family="Helvetica,sans-Serif" font-size="10.00">SPI_CRCPR</text>
<text xml:space="preserve" text-anchor="start" x="4" y="-256.5" font-family="Helvetica,sans-Serif" font-size="10.00">+</text>
<text xml:space="preserve" text-anchor="start" x="14" y="-256.5" font-family="Helvetica,sans-Serif" font-size="10.00">SPI_RXCRCR</text>
<text xml:space="preserve" text-anchor="start" x="4" y="-240.5" font-family="Helvetica,sans-Serif" font-size="10.00">+</text>
<text xml:space="preserve" text-anchor="start" x="14" y="-240.5" font-family="Helvetica,sans-Serif" font-size="10.00">SPI_TXCRCR</text>
<text xml:space="preserve" text-anchor="start" x="4" y="-224.5" font-family="Helvetica,sans-Serif" font-size="10.00">+</text>
<text xml:space="preserve" text-anchor="start" x="14" y="-224.5" font-family="Helvetica,sans-Serif" font-size="10.00">SPI_I2SCFGR</text>
<text xml:space="preserve" text-anchor="start" x="4" y="-208.5" font-family="Helvetica,sans-Serif" font-size="10.00">+</text>
<text xml:space="preserve" text-anchor="start" x="14" y="-208.5" font-family="Helvetica,sans-Serif" font-size="10.00">SPI_I2SPR</text>
<text xml:space="preserve" text-anchor="start" x="40.5" y="-192.5" font-family="Helvetica,sans-Serif" font-size="10.00"> </text>
<polygon fill="#666666" stroke="#666666" points="0,-348 0,-348 84,-348 84,-348 0,-348"/>
<polygon fill="#666666" stroke="#666666" points="0,-204 0,-204 12,-204 12,-204 0,-204"/>
<polygon fill="#666666" stroke="#666666" points="12,-204 12,-204 84,-204 84,-204 12,-204"/>
<polygon fill="none" stroke="#666666" points="0,-186 0,-366 84,-366 84,-186 0,-186"/>
</a>
</g>
</g>
<!-- Node2&#45;&gt;Node1 -->
<g id="edge1_Node000001_Node000002" class="edge">
<title>Node2&#45;&gt;Node1</title>
<g id="a_edge1_Node000001_Node000002"><a xlink:title=" ">
<path fill="none" stroke="#63b8ff" d="M64.63,-186.19C68.18,-172.24 71.83,-157.92 75.31,-144.25"/>
<polygon fill="none" stroke="#63b8ff" points="75.27,-144.43 72.88,-137.62 78.23,-132.8 80.63,-139.6 75.27,-144.43"/>
</a>
</g>
<text xml:space="preserve" text-anchor="start" x="76.25" y="-155.5" font-family="Helvetica,sans-Serif" font-size="10.00" fill="grey">+pSPIx</text>
</g>
<!-- Node3 -->
<g id="Node000003" class="node">
<title>Node3</title>
<g id="a_Node000003"><a xlink:href="struct_s_p_i___config__t.html" target="_top" xlink:title="Configuration structure for SPIx peripheral.">
<polygon fill="white" stroke="none" points="196.25,-350 101.75,-350 101.75,-202 196.25,-202 196.25,-350"/>
<text xml:space="preserve" text-anchor="start" x="119.75" y="-336.5" font-family="Helvetica,sans-Serif" font-size="10.00">SPI_Config_t</text>
<text xml:space="preserve" text-anchor="start" x="105.75" y="-320.5" font-family="Helvetica,sans-Serif" font-size="10.00">+</text>
<text xml:space="preserve" text-anchor="start" x="115.75" y="-320.5" font-family="Helvetica,sans-Serif" font-size="10.00">SPI_DeviceMode</text>
<text xml:space="preserve" text-anchor="start" x="105.75" y="-304.5" font-family="Helvetica,sans-Serif" font-size="10.00">+</text>
<text xml:space="preserve" text-anchor="start" x="115.75" y="-304.5" font-family="Helvetica,sans-Serif" font-size="10.00">SPI_BusConfig</text>
<text xml:space="preserve" text-anchor="start" x="105.75" y="-288.5" font-family="Helvetica,sans-Serif" font-size="10.00">+</text>
<text xml:space="preserve" text-anchor="start" x="115.75" y="-288.5" font-family="Helvetica,sans-Serif" font-size="10.00">SPI_SclkSpeed</text>
<text xml:space="preserve" text-anchor="start" x="105.75" y="-272.5" font-family="Helvetica,sans-Serif" font-size="10.00">+</text>
<text xml:space="preserve" text-anchor="start" x="115.75" y="-272.5" font-family="Helvetica,sans-Serif" font-size="10.00">SPI_DFF</text>
<text xml:space="preserve" text-anchor="start" x="105.75" y="-256.5" font-family="Helvetica,sans-Serif" font-size="10.00">+</text>
<text xml:space="preserve" text-anchor="start" x="115.75" y="-256.5" font-family="Helvetica,sans-Serif" font-size="10.00">SPI_CPHA</text>
<text xml:space="preserve" text-anchor="start" x="105.75" y="-240.5" font-family="Helvetica,sans-Serif" font-size="10.00">+</text>
<text xml:space="preserve" text-anchor="start" x="115.75" y="-240.5" font-family="Helvetica,sans-Serif" font-size="10.00">SPI_CPOL</text>
<text xml:space="preserve" text-anchor="start" x="105.75" y="-224.5" font-family="Helvetica,sans-Serif" font-size="10.00">+</text>
<text xml:space="preserve" text-anchor="start" x="115.75" y="-224.5" font-family="Helvetica,sans-Serif" font-size="10.00">SPI_SSM</text>
<text xml:space="preserve" text-anchor="start" x="147.5" y="-208.5" font-family="Helvetica,sans-Serif" font-size="10.00"> </text>
<polygon fill="#666666" stroke="#666666" points="101.75,-332 101.75,-332 196.25,-332 196.25,-332 101.75,-332"/>
<polygon fill="#666666" stroke="#666666" points="101.75,-220 101.75,-220 113.75,-220 113.75,-220 101.75,-220"/>
<polygon fill="#666666" stroke="#666666" points="113.75,-220 113.75,-220 196.25,-220 196.25,-220 113.75,-220"/>
<polygon fill="none" stroke="#666666" points="101.75,-202 101.75,-350 196.25,-350 196.25,-202 101.75,-202"/>
</a>
</g>
</g>
<!-- Node3&#45;&gt;Node1 -->
<g id="edge2_Node000001_Node000003" class="edge">
<title>Node3&#45;&gt;Node1</title>
<g id="a_edge2_Node000001_Node000003"><a xlink:title=" ">
<path fill="none" stroke="#63b8ff" d="M130.11,-202.25C125.25,-183.51 119.99,-163.27 115.07,-144.3"/>
<polygon fill="none" stroke="#63b8ff" points="115.05,-144.21 109.67,-139.41 112.03,-132.6 117.41,-137.4 115.05,-144.21"/>
</a>
</g>
<text xml:space="preserve" text-anchor="start" x="123.38" y="-155.5" font-family="Helvetica,sans-Serif" font-size="10.00" fill="grey">+SPIConfig</text>
</g>
</g>
</svg>
