<?xml version="1.0" encoding="UTF-8" standalone="no"?>
<!DOCTYPE svg PUBLIC "-//W3C//DTD SVG 1.1//EN"
 "http://www.w3.org/Graphics/SVG/1.1/DTD/svg11.dtd">
<!-- Generated by graphviz version 14.1.2 (20260124.0452)
 -->
<!-- Title: USART_Handle_t Pages: 1 -->
<svg width="109pt" height="262pt"
 viewBox="0.00 0.00 109.00 262.00" xmlns="http://www.w3.org/2000/svg" xmlns:xlink="http://www.w3.org/1999/xlink">
<g id="graph0" class="graph" transform="scale(1 1) rotate(0) translate(4 258)">
<title>USART_Handle_t</title>
<!-- Node1 -->
<g id="Node000001" class="node">
<title>Node1</title>
<g id="a_Node000001"><a xlink:title="Handle structure for USART/UART peripheral control.">
<polygon fill="#999999" stroke="none" points="87.5,-52 1.5,-52 1.5,0 87.5,0 87.5,-52"/>
<text xml:space="preserve" text-anchor="start" x="5.5" y="-38.5" font-family="Helvetica,sans-Serif" font-size="10.00">USART_Handle_t</text>
<text xml:space="preserve" text-anchor="start" x="43" y="-22.5" font-family="Helvetica,sans-Serif" font-size="10.00"> </text>
<text xml:space="preserve" text-anchor="start" x="43" y="-6.5" font-family="Helvetica,sans-Serif" font-size="10.00"> </text>
<polygon fill="#666666" stroke="#666666" points="1.5,-34 1.5,-34 87.5,-34 87.5,-34 1.5,-34"/>
<polygon fill="#666666" stroke="#666666" points="1.5,-18 1.5,-18 87.5,-18 87.5,-18 1.5,-18"/>
<polygon fill="none" stroke="#666666" points="1.5,0 1.5,-52 87.5,-52 87.5,0 1.5,0"/>
</a>
</g>
</g>
<!-- Node2 -->
<g id="Node000002" class="node">
<title>Node2</title>
<g id="a_Node000002"><a xlink:href="struct_u_s_a_r_t___reg_def__t.html" target="_top" xlink:title="Peripheral register definition structure for USART.">
<polygon fill="white" stroke="none" points="89,-254 0,-254 0,-106 89,-106 89,-254"/>
<text xml:space="preserve" text-anchor="start" x="4" y="-240.5" font-family="Helvetica,sans-Serif" font-size="10.00">USART_RegDef_t</text>
<text xml:space="preserve" text-anchor="start" x="5.06" y="-224.5" font-family="Helvetica,sans-Serif" font-size="10.00">+</text>
<text xml:space="preserve" text-anchor="start" x="16.12" y="-224.5" font-family="Helvetica,sans-Serif" font-size="10.00">USART_SR</text>
<text xml:space="preserve" text-anchor="start" x="5.06" y="-208.5" font-family="Helvetica,sans-Serif" font-size="10.00">+</text>
<text xml:space="preserve" text-anchor="start" x="16.12" y="-208.5" font-family="Helvetica,sans-Serif" font-size="10.00">USART_DR</text>
<text xml:space="preserve" text-anchor="start" x="5.06" y="-192.5" font-family="Helvetica,sans-Serif" font-size="10.00">+</text>
<text xml:space="preserve" text-anchor="start" x="16.12" y="-192.5" font-family="Helvetica,sans-Serif" font-size="10.00">USART_BRR</text>
<text xml:space="preserve" text-anchor="start" x="5.06" y="-176.5" font-family="Helvetica,sans-Serif" font-size="10.00">+</text>
<text xml:space="preserve" text-anchor="start" x="16.12" y="-176.5" font-family="Helvetica,sans-Serif" font-size="10.00">USART_CR1</text>
<text xml:space="preserve" text-anchor="start" x="5.06" y="-160.5" font-family="Helvetica,sans-Serif" font-size="10.00">+</text>
<text xml:space="preserve" text-anchor="start" x="16.12" y="-160.5" font-family="Helvetica,sans-Serif" font-size="10.00">USART_CR2</text>
<text xml:space="preserve" text-anchor="start" x="5.06" y="-144.5" font-family="Helvetica,sans-Serif" font-size="10.00">+</text>
<text xml:space="preserve" text-anchor="start" x="16.12" y="-144.5" font-family="Helvetica,sans-Serif" font-size="10.00">USART_CR3</text>
<text xml:space="preserve" text-anchor="start" x="5.06" y="-128.5" font-family="Helvetica,sans-Serif" font-size="10.00">+</text>
<text xml:space="preserve" text-anchor="start" x="16.12" y="-128.5" font-family="Helvetica,sans-Serif" font-size="10.00">USART_GTPR</text>
<text xml:space="preserve" text-anchor="start" x="43" y="-112.5" font-family="Helvetica,sans-Serif" font-size="10.00"> </text>
<polygon fill="#666666" stroke="#666666" points="0,-236 0,-236 89,-236 89,-236 0,-236"/>
<polygon fill="#666666" stroke="#666666" points="0,-124 0,-124 14.12,-124 14.12,-124 0,-124"/>
<polygon fill="#666666" stroke="#666666" points="14.12,-124 14.12,-124 89,-124 89,-124 14.12,-124"/>
<polygon fill="none" stroke="#666666" points="0,-106 0,-254 89,-254 89,-106 0,-106"/>
</a>
</g>
</g>
<!-- Node2&#45;&gt;Node1 -->
<g id="edge1_Node000001_Node000002" class="edge">
<title>Node2&#45;&gt;Node1</title>
<g id="a_edge1_Node000001_Node000002"><a xlink:title=" ">
<path fill="none" stroke="#63b8ff" d="M44.5,-106.12C44.5,-91.79 44.5,-77.32 44.5,-64.74"/>
<polygon fill="none" stroke="#63b8ff" points="44.5,-64.83 40.5,-58.83 44.5,-52.83 48.5,-58.83 44.5,-64.83"/>
</a>
</g>
<text xml:space="preserve" text-anchor="start" x="47.5" y="-75.5" font-family="Helvetica,sans-Serif" font-size="10.00" fill="grey">+pUSARTx</text>
</g>
</g>
</svg>
