<?xml version="1.0" encoding="UTF-8" standalone="no"?>
<!DOCTYPE svg PUBLIC "-//W3C//DTD SVG 1.1//EN"
 "http://www.w3.org/Graphics/SVG/1.1/DTD/svg11.dtd">
<!-- Generated by graphviz version 14.1.2 (20260124.0452)
 -->
<!-- Title: GPIO_Handle_t Pages: 1 -->
<svg width="234pt" height="310pt"
 viewBox="0.00 0.00 234.00 310.00" xmlns="http://www.w3.org/2000/svg" xmlns:xlink="http://www.w3.org/1999/xlink">
<g id="graph0" class="graph" transform="scale(1 1) rotate(0) translate(4 306)">
<title>GPIO_Handle_t</title>
<!-- Node1 -->
<g id="Node000001" class="node">
<title>Node1</title>
<g id="a_Node000001"><a xlink:title="Handle structure for a GPIO pin.">
<polygon fill="#999999" stroke="none" points="136.5,-52 59.5,-52 59.5,0 136.5,0 136.5,-52"/>
<text xml:space="preserve" text-anchor="start" x="63.5" y="-38.5" font-family="Helvetica,sans-Serif" font-size="10.00">GPIO_Handle_t</text>
<text xml:space="preserve" text-anchor="start" x="96.5" y="-22.5" font-family="Helvetica,sans-Serif" font-size="10.00"> </text>
<text xml:space="preserve" text-anchor="start" x="96.5" y="-6.5" font-family="Helvetica,sans-Serif" font-size="10.00"> </text>
<polygon fill="#666666" stroke="#666666" points="59.5,-34 59.5,-34 136.5,-34 136.5,-34 59.5,-34"/>
<polygon fill="#666666" stroke="#666666" points="59.5,-18 59.5,-18 136.5,-18 136.5,-18 59.5,-18"/>
<polygon fill="none" stroke="#666666" points="59.5,0 59.5,-52 136.5,-52 136.5,0 59.5,0"/>
</a>
</g>
</g>
<!-- Node2 -->
<g id="Node000002" class="node">
<title>Node2</title>
<g id="a_Node000002"><a xlink:href="struct_g_p_i_o___reg_def__t.html" target="_top" xlink:title="Peripheral register definition structure for GPIO.">
<polygon fill="white" stroke="none" points="80,-302 0,-302 0,-106 80,-106 80,-302"/>
<text xml:space="preserve" text-anchor="start" x="4" y="-288.5" font-family="Helvetica,sans-Serif" font-size="10.00">GPIO_RegDef_t</text>
<text xml:space="preserve" text-anchor="start" x="7.12" y="-272.5" font-family="Helvetica,sans-Serif" font-size="10.00">+</text>
<text xml:space="preserve" text-anchor="start" x="20.25" y="-272.5" font-family="Helvetica,sans-Serif" font-size="10.00">MODER</text>
<text xml:space="preserve" text-anchor="start" x="7.12" y="-256.5" font-family="Helvetica,sans-Serif" font-size="10.00">+</text>
<text xml:space="preserve" text-anchor="start" x="20.25" y="-256.5" font-family="Helvetica,sans-Serif" font-size="10.00">OTYPER</text>
<text xml:space="preserve" text-anchor="start" x="7.12" y="-240.5" font-family="Helvetica,sans-Serif" font-size="10.00">+</text>
<text xml:space="preserve" text-anchor="start" x="20.25" y="-240.5" font-family="Helvetica,sans-Serif" font-size="10.00">OSPEEDR</text>
<text xml:space="preserve" text-anchor="start" x="7.12" y="-224.5" font-family="Helvetica,sans-Serif" font-size="10.00">+</text>
<text xml:space="preserve" text-anchor="start" x="20.25" y="-224.5" font-family="Helvetica,sans-Serif" font-size="10.00">PUPDR</text>
<text xml:space="preserve" text-anchor="start" x="7.12" y="-208.5" font-family="Helvetica,sans-Serif" font-size="10.00">+</text>
<text xml:space="preserve" text-anchor="start" x="20.25" y="-208.5" font-family="Helvetica,sans-Serif" font-size="10.00">IDR</text>
<text xml:space="preserve" text-anchor="start" x="7.12" y="-192.5" font-family="Helvetica,sans-Serif" font-size="10.00">+</text>
<text xml:space="preserve" text-anchor="start" x="20.25" y="-192.5" font-family="Helvetica,sans-Serif" font-size="10.00">ODR</text>
<text xml:space="preserve" text-anchor="start" x="7.12" y="-176.5" font-family="Helvetica,sans-Serif" font-size="10.00">+</text>
<text xml:space="preserve" text-anchor="start" x="20.25" y="-176.5" font-family="Helvetica,sans-Serif" font-size="10.00">BSRR</text>
<text xml:space="preserve" text-anchor="start" x="7.12" y="-160.5" font-family="Helvetica,sans-Serif" font-size="10.00">+</text>
<text xml:space="preserve" text-anchor="start" x="20.25" y="-160.5" font-family="Helvetica,sans-Serif" font-size="10.00">LCKR</text>
<text xml:space="preserve" text-anchor="start" x="7.12" y="-144.5" font-family="Helvetica,sans-Serif" font-size="10.00">+</text>
<text xml:space="preserve" text-anchor="start" x="20.25" y="-144.5" font-family="Helvetica,sans-Serif" font-size="10.00">AFRL</text>
<text xml:space="preserve" text-anchor="start" x="7.12" y="-128.5" font-family="Helvetica,sans-Serif" font-size="10.00">+</text>
<text xml:space="preserve" text-anchor="start" x="20.25" y="-128.5" font-family="Helvetica,sans-Serif" font-size="10.00">AFRH</text>
<text xml:space="preserve" text-anchor="start" x="38.5" y="-112.5" font-family="Helvetica,sans-Serif" font-size="10.00"> </text>
<polygon fill="#666666" stroke="#666666" points="0,-284 0,-284 80,-284 80,-284 0,-284"/>
<polygon fill="#666666" stroke="#666666" points="0,-124 0,-124 18.25,-124 18.25,-124 0,-124"/>
<polygon fill="#666666" stroke="#666666" points="18.25,-124 18.25,-124 80,-124 80,-124 18.25,-124"/>
<polygon fill="none" stroke="#666666" points="0,-106 0,-302 80,-302 80,-106 0,-106"/>
</a>
</g>
</g>
<!-- Node2&#45;&gt;Node1 -->
<g id="edge1_Node000001_Node000002" class="edge">
<title>Node2&#45;&gt;Node1</title>
<g id="a_edge1_Node000001_Node000002"><a xlink:title=" ">
<path fill="none" stroke="#63b8ff" d="M71.88,-106.25C76.81,-91.31 81.62,-76.71 85.74,-64.19"/>
<polygon fill="none" stroke="#63b8ff" points="85.73,-64.23 83.81,-57.28 89.49,-52.84 91.41,-59.79 85.73,-64.23"/>
</a>
</g>
<text xml:space="preserve" text-anchor="start" x="85.44" y="-75.5" font-family="Helvetica,sans-Serif" font-size="10.00" fill="grey">+pGPIOx</text>
</g>
<!-- Node3 -->
<g id="Node000003" class="node">
<title>Node3</title>
<g id="a_Node000003"><a xlink:href="struct_g_p_i_o___pin_config__t.html" target="_top" xlink:title="Configuration structure for a GPIO pin.">
<polygon fill="white" stroke="none" points="215.88,-270 98.12,-270 98.12,-138 215.88,-138 215.88,-270"/>
<text xml:space="preserve" text-anchor="start" x="116.5" y="-256.5" font-family="Helvetica,sans-Serif" font-size="10.00">GPIO_PinConfig_t</text>
<text xml:space="preserve" text-anchor="start" x="102.12" y="-240.5" font-family="Helvetica,sans-Serif" font-size="10.00">+</text>
<text xml:space="preserve" text-anchor="start" x="112.12" y="-240.5" font-family="Helvetica,sans-Serif" font-size="10.00">GPIO_PinNumber</text>
<text xml:space="preserve" text-anchor="start" x="102.12" y="-224.5" font-family="Helvetica,sans-Serif" font-size="10.00">+</text>
<text xml:space="preserve" text-anchor="start" x="112.12" y="-224.5" font-family="Helvetica,sans-Serif" font-size="10.00">GPIO_PinMode</text>
<text xml:space="preserve" text-anchor="start" x="102.12" y="-208.5" font-family="Helvetica,sans-Serif" font-size="10.00">+</text>
<text xml:space="preserve" text-anchor="start" x="112.12" y="-208.5" font-family="Helvetica,sans-Serif" font-size="10.00">GPIO_PinSpeed</text>
<text xml:space="preserve" text-anchor="start" x="102.12" y="-192.5" font-family="Helvetica,sans-Serif" font-size="10.00">+</text>
<text xml:space="preserve" text-anchor="start" x="112.12" y="-192.5" font-family="Helvetica,sans-Serif" font-size="10.00">GPIO_PinPuPdControl</text>
<text xml:space="preserve" text-anchor="start" x="102.12" y="-176.5" font-family="Helvetica,sans-Serif" font-size="10.00">+</text>
<text xml:space="preserve" text-anchor="start" x="112.12" y="-176.5" font-family="Helvetica,sans-Serif" font-size="10.00">GPIO_PinOPType</text>
<text xml:space="preserve" text-anchor="start" x="102.12" y="-160.5" font-family="Helvetica,sans-Serif" font-size="10.00">+</text>
<text xml:space="preserve" text-anchor="start" x="112.12" y="-160.5" font-family="Helvetica,sans-Serif" font-size="10.00">GPIO_PinAltFunMode</text>
<text xml:space="preserve" text-anchor="start" x="155.5" y="-144.5" font-family="Helvetica,sans-Serif" font-size="10.00"> </text>
<polygon fill="#666666" stroke="#666666" points="98.12,-252 98.12,-252 215.88,-252 215.88,-252 98.12,-252"/>
<polygon fill="#666666" stroke="#666666" points="98.12,-156 98.12,-156 110.12,-156 110.12,-156 98.12,-156"/>
<polygon fill="#666666" stroke="#666666" points="110.12,-156 110.12,-156 215.88,-156 215.88,-156 110.12,-156"/>
<polygon fill="none" stroke="#666666" points="98.12,-138 98.12,-270 215.88,-270 215.88,-138 98.12,-138"/>
</a>
</g>
</g>
<!-- Node3&#45;&gt;Node1 -->
<g id="edge2_Node000001_Node000003" class="edge">
<title>Node3&#45;&gt;Node1</title>
<g id="a_edge2_Node000001_Node000003"><a xlink:title=" ">
<path fill="none" stroke="#63b8ff" d="M152.67,-138.03C149.41,-115.71 143.76,-91.05 134,-70 132.8,-67.42 131.41,-64.86 129.88,-62.36"/>
<polygon fill="none" stroke="#63b8ff" points="129.91,-62.41 123.19,-59.8 123.01,-52.59 129.73,-55.2 129.91,-62.41"/>
</a>
</g>
<text xml:space="preserve" text-anchor="start" x="143.78" y="-75.5" font-family="Helvetica,sans-Serif" font-size="10.00" fill="grey">+GPIO_PinConfig</text>
</g>
</g>
</svg>
