<?xml version="1.0" encoding="UTF-8" standalone="no"?>
<!DOCTYPE svg PUBLIC "-//W3C//DTD SVG 1.1//EN"
 "http://www.w3.org/Graphics/SVG/1.1/DTD/svg11.dtd">
<!-- Generated by graphviz version 14.1.2 (20260124.0452)
 -->
<!-- Title: RCC_RegDef_t Pages: 1 -->
<svg width="89pt" height="220pt"
 viewBox="0.00 0.00 89.00 220.00" xmlns="http://www.w3.org/2000/svg" xmlns:xlink="http://www.w3.org/1999/xlink">
<g id="graph0" class="graph" transform="scale(1 1) rotate(0) translate(4 216)">
<title>RCC_RegDef_t</title>
<!-- Node1 -->
<g id="Node000001" class="node">
<title>Node1</title>
<g id="a_Node000001"><a xlink:title="Peripheral register definition structure for RCC.">
<polygon fill="#999999" stroke="none" points="81,-212 0,-212 0,0 81,0 81,-212"/>
<text xml:space="preserve" text-anchor="start" x="5.62" y="-198.5" font-family="Helvetica,sans-Serif" font-size="10.00">RCC_RegDef_t</text>
<text xml:space="preserve" text-anchor="start" x="4" y="-182.5" font-family="Helvetica,sans-Serif" font-size="10.00">+</text>
<text xml:space="preserve" text-anchor="start" x="14" y="-182.5" font-family="Helvetica,sans-Serif" font-size="10.00">CR</text>
<text xml:space="preserve" text-anchor="start" x="4" y="-166.5" font-family="Helvetica,sans-Serif" font-size="10.00">+</text>
<text xml:space="preserve" text-anchor="start" x="14" y="-166.5" font-family="Helvetica,sans-Serif" font-size="10.00">PLLCFGR</text>
<text xml:space="preserve" text-anchor="start" x="4" y="-150.5" font-family="Helvetica,sans-Serif" font-size="10.00">+</text>
<text xml:space="preserve" text-anchor="start" x="14" y="-150.5" font-family="Helvetica,sans-Serif" font-size="10.00">CFGR</text>
<text xml:space="preserve" text-anchor="start" x="4" y="-134.5" font-family="Helvetica,sans-Serif" font-size="10.00">+</text>
<text xml:space="preserve" text-anchor="start" x="14" y="-134.5" font-family="Helvetica,sans-Serif" font-size="10.00">CIR</text>
<text xml:space="preserve" text-anchor="start" x="4" y="-118.5" font-family="Helvetica,sans-Serif" font-size="10.00">+</text>
<text xml:space="preserve" text-anchor="start" x="14" y="-118.5" font-family="Helvetica,sans-Serif" font-size="10.00">AHB1RSTR</text>
<text xml:space="preserve" text-anchor="start" x="4" y="-102.5" font-family="Helvetica,sans-Serif" font-size="10.00">+</text>
<text xml:space="preserve" text-anchor="start" x="14" y="-102.5" font-family="Helvetica,sans-Serif" font-size="10.00">AHB2RSTR</text>
<text xml:space="preserve" text-anchor="start" x="4" y="-86.5" font-family="Helvetica,sans-Serif" font-size="10.00">+</text>
<text xml:space="preserve" text-anchor="start" x="14" y="-86.5" font-family="Helvetica,sans-Serif" font-size="10.00">RESERVED0</text>
<text xml:space="preserve" text-anchor="start" x="4" y="-70.5" font-family="Helvetica,sans-Serif" font-size="10.00">+</text>
<text xml:space="preserve" text-anchor="start" x="14" y="-70.5" font-family="Helvetica,sans-Serif" font-size="10.00">APB1RSTR</text>
<text xml:space="preserve" text-anchor="start" x="4" y="-54.5" font-family="Helvetica,sans-Serif" font-size="10.00">+</text>
<text xml:space="preserve" text-anchor="start" x="14" y="-54.5" font-family="Helvetica,sans-Serif" font-size="10.00">APB2RSTR</text>
<text xml:space="preserve" text-anchor="start" x="4" y="-38.5" font-family="Helvetica,sans-Serif" font-size="10.00">+</text>
<text xml:space="preserve" text-anchor="start" x="14" y="-38.5" font-family="Helvetica,sans-Serif" font-size="10.00">RESERVED1</text>
<text xml:space="preserve" text-anchor="start" x="14" y="-22.5" font-family="Helvetica,sans-Serif" font-size="10.00">and 19 more...</text>
<text xml:space="preserve" text-anchor="start" x="39" y="-6.5" font-family="Helvetica,sans-Serif" font-size="10.00"> </text>
<polygon fill="#666666" stroke="#666666" points="0,-194 0,-194 81,-194 81,-194 0,-194"/>
<polygon fill="#666666" stroke="#666666" points="0,-18 0,-18 12,-18 12,-18 0,-18"/>
<polygon fill="#666666" stroke="#666666" points="12,-18 12,-18 81,-18 81,-18 12,-18"/>
<polygon fill="none" stroke="#666666" points="0,0 0,-212 81,-212 81,0 0,0"/>
</a>
</g>
</g>
</g>
</svg>
